<?xml version="1.0" encoding="utf-8"?>
<!-- Generator: Adobe Illustrator 22.0.0, SVG Export Plug-In . SVG Version: 6.00 Build 0)  -->
<svg version="1.1" id="Layer_1" xmlns="http://www.w3.org/2000/svg" xmlns:xlink="http://www.w3.org/1999/xlink" x="0px" y="0px"
	 viewBox="0 0 353.1 85.3" style="enable-background:new 0 0 353.1 85.3;" xml:space="preserve">
<style type="text/css">
	.st0{fill:#FFFFFF;}
</style>
<path class="st0" d="M61.5,56.7c3.1,0.4,8.4-1,10.9-4.7c0-0.4-0.1-0.7-0.3-1c-2.9,3.3-9.8,7-23-3.2c-2.8-2.2-5.2-4.1-7.3-5.8
	c13.1-9.4,18.2-8.1,21.5-5.1c3.7,3.3,2.4,9.1-2.8,10.1c-4.5,0.9-6.4-4.3-5.1-6.4c0.7-1.1,2.2-1.3,3,0.2c0.9,0.3,1.6,0.3,1.6,0.2
	c0.4-2.2-1.5-4.8-4.1-4.6c-3,0.2-4.3,3.3-4.1,5.9c0.3,3.1,3.2,7.2,9.6,5.9c5.5-1.3,6.8-6.4,6.4-9.1c-0.2-2.3-3.3-7.8-11.7-5.9
	c-6.1,1.6-12.3,5.8-15.3,8.1c-8.3-6.5-12.9-9.2-21.8-7.8C9.2,34.8,7,43,9.7,48c4.1,5.7,12.9,5.1,19.9,2.2c3,2.2,6.4,5.2,9.8,9.2
	C48.9,70.5,42,83.5,34.3,78c-4.6-3.3-3.6-8.1-2.3-11.1c-0.6,0.1-1.2,0.3-1.8,0.7c-2.3,3.1-4.1,7.7,0.4,12.2c4,3.7,11.2,2.2,14.9-4.6
	c0,0,7.1-10.6-9.6-24.3c-1-0.8-2-1.6-2.9-2.3c0.6-0.4,1.2-0.7,1.8-1.1c1.2,0.9,2.4,2,3.7,3.2C51.4,62.5,60,61.9,64.5,60
	c0.4-0.4,0.8-0.9,1.1-1.4c-4.1,1-13,1.1-25.3-10.6c-1-1-2-1.8-3-2.6c0.5-0.4,1-0.8,1.5-1.2C45.5,49.7,49.9,55.4,61.5,56.7
	 M36.4,44.5c-8.9-7-15.4-7.2-19.3-6.3c-0.6,0.4-1.2,0.9-1.8,1.4c3.5-0.4,9.3,0.1,18,6.7c-0.6,0.4-1.3,0.7-2,1.1
	c-8.4-5.7-13.6-5.6-16.3-4.8c-0.4,0.3-0.8,0.7-1.1,1.2c2.2,0.1,7.3,0.9,13.8,5.1c-2.9,0.9-6.2,1.4-9.3,0.6
	c-9.7-2.4-7.8-8.5-6.4-10.4c2.3-3.1,6.9-6.4,18.3-0.7c3,1.5,5.5,3.2,7.7,5C37.5,43.7,37,44,36.4,44.5"/>
<path class="st0" d="M35.1,10c0.7-0.1,2.6-0.3,3.4-0.3c5.9-0.1,10.3,4,10.8,10.5c0,0,0.3,4,0,5c0,0,1.6,0.5,2.3,0.6
	c0,0,1.2-2.4,1.2-5.4c-0.1-8.7-6.4-13.3-14-13.2c-3,0-7.3,0.4-10.3,0.7c-0.1,0.6,0,1.8,0.1,2.4c0.9,0.1,2,0.1,2.9,0.1
	C33.9,10.2,35.1,10,35.1,10"/>
<path class="st0" d="M35.2,21.8l0.2,10.6c1.2,0.1,2.6,0.1,3.8,0.1c2.7-0.1,4.9-0.7,6.5-2.1c0,0,2.9-2.9,3.2-3.5
	c1,0.3,1.6,0.7,2.1,1.2c0,0-2.1,3.9-3.6,4.8c-2,1.4-4.4,2-7,2.1c-3.5,0.1-8.4,0.1-12.1,0c0.1-0.6,0.2-1.5,0.4-2.1
	c0.7-0.2,2.3-0.5,3.2-0.6l-0.3-10.2c-0.2-1.3-0.1-7.2-0.1-7.2c0-0.9,0.1-2.2,0.2-3.1c0.7-0.1,1.9-0.1,2.7,0c0.1,0.9,0.4,1.9,0.5,2.9
	C34.9,14.6,35.1,19.6,35.2,21.8"/>
<path class="st0" d="M92.7,29.6c-1,0-2.6-0.2-3.3-0.3c-0.1-0.6-0.2-2-0.1-2.6h11.7c0.1,0.5,0.1,1.9-0.1,2.5
	c-1.1,0.2-2.8,0.3-4.1,0.4V55H108c0.1-1.4,0.3-3.4,0.5-4.5c0.7-0.2,2.1-0.3,2.9-0.3v7.7H88.7c0-0.7,0.3-1.8,0.5-2.4
	c0.8-0.2,2.5-0.5,3.5-0.6V29.6z"/>
<path class="st0" d="M123,50.7l-0.8,1.9c-0.3,0.8-0.9,1.9-1.3,2.4c0.9,0.1,2.3,0.4,3,0.7c0.2,0.5,0.4,1.5,0.4,2.2h-9.6
	c0-0.7,0.2-1.4,0.4-2c0.7-0.5,1.8-0.9,2.6-1.1l8.7-20.6l3.8-0.5l8.8,21.5c0.7,0,1.7,0.2,2.2,0.4c0.3,0.6,0.6,1.6,0.6,2.3h-10.2
	c0-0.6,0.4-1.7,0.6-2.2c0.7-0.3,2-0.6,2.8-0.7c-0.5-0.6-1.1-1.7-1.4-2.5l-0.7-1.8H123z M128.1,37.4c-0.1,0.7-0.8,2.6-1.1,3.4
	l-2.9,7.3h7.9l-2.7-7.4c-0.3-0.8-0.8-2.5-0.9-3.3H128.1z"/>
<path class="st0" d="M158.3,29.9c-1,0-2.3,0-3.3-0.1c-0.1-0.6-0.2-2-0.1-2.7c3.5-0.4,8.4-0.6,11.8-0.6c8.7,0,15.7,5.4,15.7,15.3
	c0,11.5-6.9,16.3-14.4,16.3c-4,0-9.6,0-13.8-0.2c0.1-0.7,0.3-1.8,0.5-2.4c0.8-0.2,2.5-0.5,3.5-0.6V29.9z M162.4,55.1
	c1.3,0.1,3,0.1,4.3,0.1c7.1,0,11.3-3.8,11.3-13.3c0-8.3-5.4-12.7-12.1-12.7c-0.9,0-2.7,0-3.5,0.1V55.1z"/>
<path class="st0" d="M209.4,46c0,8.2-4.6,12.8-11.7,12.8c-7.7,0-11.9-4.4-11.9-12.8c0-7.5,5.1-12.2,11.9-12.2
	C204.7,33.8,209.4,38.1,209.4,46 M197.7,56c5,0,7.5-3.9,7.5-10.1c0-5.4-3-9.5-7.5-9.5c-5,0-7.7,3.8-7.7,9.5
	C190,52.1,192.9,56,197.7,56"/>
<path class="st0" d="M220.4,42.3c-0.4-1.3-0.9-3.3-1.2-4.5h-0.3L217,55c0.9,0.1,2.5,0.4,3.3,0.7c0.1,0.6,0.2,1.6,0.1,2.2h-9.8
	c0-0.5,0.4-1.7,0.6-2.2c0.7-0.4,1.8-0.8,2.7-0.9l2.2-17.6c-1,0-2.4-0.2-3.2-0.3c-0.1-0.6-0.2-1.9,0-2.4h8.9l5.3,16
	c0.4,1.1,0.7,2.7,0.9,4h0.3c0.2-1.3,0.6-3,0.9-4l5.2-16h8.9c0,0.5,0,1.8-0.1,2.4c-1,0.1-2.5,0.3-3.6,0.3L242,55
	c1,0.1,2.5,0.4,3.3,0.7c0.2,0.5,0.3,1.3,0.3,1.6c0,0.2,0,0.4,0,0.6H235c0-0.6,0.3-1.7,0.6-2.2c0.7-0.4,1.7-0.7,2.6-0.9l-2.3-16.9
	h-0.3c-0.2,1.3-0.7,3.1-1.1,4.5l-5.1,15.8l-3.9,0.4L220.4,42.3z"/>
<path class="st0" d="M249,57.9c0-0.5,0.4-1.7,0.6-2.1c0.7-0.4,1.9-0.8,2.9-0.9V37.2c-1,0-2.2-0.2-3.1-0.3c-0.1-0.6-0.2-1.9,0-2.4
	h10.5c0,0.5,0,1.9-0.1,2.5c-1,0.1-2.2,0.2-3.2,0.3V55c1,0.1,2.7,0.4,3.6,0.7c0.1,0.4,0.2,0.9,0.2,1.5c0,0.2,0,0.4,0,0.7H249z"/>
<path class="st0" d="M280.8,48.9c0.8,1.4,2.2,4.2,2.4,5.5h0.3V37.2c-1.3,0-2.9-0.2-3.8-0.3c-0.1-0.6-0.2-1.9,0-2.4h9.8
	c0,0.3,0,0.6,0,0.7c0,0.6-0.1,1.4-0.2,1.8c-0.8,0.1-2,0.2-2.8,0.2v20.5l-4.8,0.6L272.8,42c-0.5-0.9-1.8-3.3-2.2-4.3h-0.3V55
	c1,0.1,2.8,0.4,3.6,0.7c0.1,0.6,0.2,1.6,0.1,2.2h-10.4c0-0.5,0.4-1.7,0.6-2.2c0.7-0.4,1.9-0.8,2.9-0.9V37.2c-1,0-2.3-0.2-3.1-0.3
	c-0.1-0.6-0.2-1.9,0-2.4h8.9L280.8,48.9z"/>
<path class="st0" d="M308.7,37.4c-1.3-0.7-2.6-1.1-4.2-1.1c-5.1,0-8.7,3-8.7,9.6c0,6.8,3.2,10,8,10c1.4,0,2.9-0.1,4.4-0.3v-6.3
	c-1.4-0.1-3.4-0.4-4.4-0.8c-0.2-0.5-0.4-1.7-0.3-2.3H315c0,0.7-0.4,1.7-0.6,2.3c-0.7,0.4-1.6,0.6-2.4,0.8v8c-2,0.7-5.9,1.6-9.6,1.6
	c-6.7,0-11-5-11-12c0-7.6,5.3-13,13.2-13c3,0,5.6,0.7,7.6,1.9c0.1,0.5,0.1,1.2,0.1,1.6c0,1.4-0.2,2.8-0.6,3.8c-0.7,0-2.2-0.3-3-0.6
	V37.4z"/>
<path class="st0" d="M323.7,50.7l-0.8,1.9c-0.3,0.8-0.9,1.9-1.3,2.4c0.9,0.1,2.3,0.4,3,0.7c0.2,0.5,0.4,1.5,0.4,2.2h-9.6
	c0-0.7,0.2-1.4,0.5-2c0.7-0.5,1.8-0.9,2.6-1.1l8.7-20.6l3.8-0.5l8.8,21.5c0.7,0,1.7,0.2,2.2,0.4c0.3,0.6,0.6,1.6,0.6,2.3h-10.2
	c0-0.6,0.4-1.7,0.6-2.2c0.7-0.3,2-0.6,2.8-0.7c-0.5-0.6-1.1-1.7-1.4-2.5l-0.7-1.8H323.7z M328.7,37.4c-0.1,0.7-0.8,2.6-1.1,3.4
	l-2.9,7.3h7.9l-2.7-7.4c-0.3-0.8-0.8-2.5-0.9-3.3H328.7z"/>
</svg>
