<svg xmlns="http://www.w3.org/2000/svg" width="375" viewBox="0 0 375 375" height="375" version="1.0"><defs><clipPath id="a"><path d="M 37.5 42.667969 L 345.75 42.667969 L 345.75 348 L 37.5 348 Z M 37.5 42.667969"/></clipPath><clipPath id="b"><path d="M 107.597656 95.835938 L 275.597656 95.835938 L 275.597656 242.835938 L 107.597656 242.835938 Z M 107.597656 95.835938"/></clipPath><clipPath id="c"><path d="M 192 314 L 193 314 L 193 315 L 192 315 Z M 192 314"/></clipPath><clipPath id="d"><path d="M 138.503906 299.125 L 203.285156 255.675781 L 236.703125 305.507812 L 171.925781 348.953125 Z M 138.503906 299.125"/></clipPath><clipPath id="e"><path d="M 138.503906 299.125 L 203.285156 255.675781 L 236.703125 305.507812 L 171.925781 348.953125 Z M 138.503906 299.125"/></clipPath><clipPath id="f"><path d="M 198 290 L 216 290 L 216 307 L 198 307 Z M 198 290"/></clipPath><clipPath id="g"><path d="M 138.503906 299.125 L 203.285156 255.675781 L 236.703125 305.507812 L 171.925781 348.953125 Z M 138.503906 299.125"/></clipPath><clipPath id="h"><path d="M 138.503906 299.125 L 203.285156 255.675781 L 236.703125 305.507812 L 171.925781 348.953125 Z M 138.503906 299.125"/></clipPath><clipPath id="i"><path d="M 153 284 L 229 284 L 229 335 L 153 335 Z M 153 284"/></clipPath><clipPath id="j"><path d="M 138.503906 299.125 L 203.285156 255.675781 L 236.703125 305.507812 L 171.925781 348.953125 Z M 138.503906 299.125"/></clipPath><clipPath id="k"><path d="M 138.503906 299.125 L 203.285156 255.675781 L 236.703125 305.507812 L 171.925781 348.953125 Z M 138.503906 299.125"/></clipPath></defs><g clip-path="url(#a)"><path fill="#202020" d="M 148.078125 72.871094 L 148.8125 71.890625 C 150.199219 71.320312 150.605469 71.566406 150.117188 71.890625 Z M 140.496094 74.421875 C 139.027344 75.398438 137.394531 76.625 138.617188 76.703125 C 139.921875 75.480469 140.414062 75.5625 141.882812 74.175781 C 143.1875 73.605469 144.328125 73.441406 144.164062 73.6875 C 144.570312 73.359375 146.367188 72.953125 146.9375 72.382812 C 144.980469 72.542969 142.695312 73.523438 140.496094 74.828125 C 140.003906 74.910156 140.414062 74.585938 140.496094 74.421875 Z M 42.636719 173.851562 L 42.964844 172.953125 C 42.800781 173.199219 42.71875 173.523438 42.636719 173.851562 Z M 49.8125 261.777344 C 49.570312 261.125 49.324219 260.878906 49.324219 260.878906 C 49.652344 261.453125 49.894531 261.941406 49.8125 261.777344 Z M 56.257812 275.808594 C 56.09375 275.480469 56.011719 275.234375 55.847656 274.992188 C 56.011719 275.316406 56.175781 275.644531 56.257812 275.808594 Z M 42.636719 173.851562 L 41.820312 176.132812 C 41.984375 176.296875 42.3125 174.992188 42.636719 173.851562 Z M 123.207031 84.128906 C 123.613281 83.882812 123.941406 83.636719 124.265625 83.394531 C 123.941406 83.636719 123.613281 83.800781 123.207031 84.046875 C 123.289062 84.046875 123.207031 84.128906 123.207031 84.128906 Z M 58.457031 137.632812 L 58.867188 136.980469 C 58.945312 136.738281 58.945312 136.574219 59.027344 136.328125 C 58.785156 136.820312 58.621094 137.226562 58.457031 137.632812 Z M 77.621094 113.980469 C 77.132812 114.46875 77.296875 114.960938 77.296875 115.367188 C 77.375 114.960938 77.703125 114.550781 78.109375 114.0625 C 78.027344 113.898438 77.867188 113.898438 77.621094 113.980469 Z M 116.273438 85.59375 L 117.007812 85.105469 C 116.847656 85.1875 116.519531 85.433594 116.273438 85.59375 Z M 47.9375 156.800781 C 47.855469 156.800781 47.773438 156.882812 47.695312 156.964844 C 47.773438 156.964844 47.855469 156.882812 47.9375 156.800781 Z M 110.402344 72.625 C 110.402344 72.542969 110.402344 72.542969 110.402344 72.625 C 110.242188 72.707031 110.242188 72.707031 110.402344 72.625 Z M 86.917969 97.585938 L 87.164062 97.179688 C 87.082031 97.097656 87 97.015625 86.917969 96.933594 Z M 72.566406 298.890625 C 72.566406 298.808594 72.484375 298.808594 72.484375 298.808594 C 71.914062 298.320312 72.238281 298.644531 72.566406 298.890625 Z M 304.570312 296.769531 C 302.203125 298.5625 307.421875 292.855469 303.996094 295.710938 C 304.488281 295.546875 301.878906 299.214844 304.570312 296.769531 Z M 122.554688 84.453125 C 122.226562 84.617188 121.820312 84.863281 121.492188 85.023438 C 121.902344 84.78125 122.226562 84.617188 122.554688 84.453125 Z M 303.996094 295.710938 L 303.671875 296.035156 C 303.835938 295.953125 303.917969 295.871094 303.996094 295.710938 Z M 125.898438 335.675781 C 125.816406 335.511719 125.570312 335.351562 125.410156 335.1875 C 125.410156 335.269531 125.488281 335.351562 125.898438 335.675781 Z M 85.207031 309.738281 L 86.101562 310.554688 C 85.777344 310.226562 85.449219 309.984375 85.207031 309.738281 Z M 150.035156 342.773438 C 150.6875 342.9375 150.851562 343.097656 151.75 343.261719 C 151.667969 343.179688 151.585938 343.179688 151.503906 343.097656 C 151.097656 343.097656 150.6875 343.015625 150.035156 342.773438 Z M 175.804688 346.851562 C 175.640625 346.769531 175.480469 346.769531 175.316406 346.6875 C 175.070312 346.6875 174.746094 346.6875 174.5 346.605469 Z M 181.839844 46.851562 C 181.269531 46.769531 180.941406 46.605469 180.617188 46.445312 C 181.105469 46.769531 177.355469 47.179688 181.839844 46.851562 Z M 123.042969 83.882812 C 122.960938 84.046875 122.796875 84.207031 122.472656 84.453125 C 122.71875 84.289062 122.960938 84.128906 123.207031 84.046875 C 123.289062 83.964844 123.289062 83.882812 123.042969 83.882812 Z M 151.992188 339.019531 C 152.644531 339.183594 153.296875 339.347656 153.949219 339.511719 L 155.90625 339.917969 C 154.847656 339.671875 153.378906 339.429688 151.992188 339.019531 Z M 329.359375 134.046875 L 328.953125 133.230469 C 329.113281 133.476562 329.195312 133.800781 329.359375 134.046875 Z M 167.730469 341.875 C 168.382812 342.203125 169.199219 342.363281 169.933594 342.527344 C 170.097656 342.527344 170.257812 342.527344 170.421875 342.445312 C 169.527344 342.285156 168.628906 342.121094 167.730469 341.875 Z M 180.617188 46.445312 C 180.699219 46.445312 180.699219 46.445312 180.617188 46.445312 C 180.699219 46.445312 180.699219 46.445312 180.617188 46.445312 Z M 155.011719 51.582031 C 155.253906 51.5 155.664062 51.335938 155.90625 51.257812 C 156.476562 51.011719 156.804688 50.765625 155.90625 50.847656 C 154.113281 51.417969 153.785156 51.5 153.542969 51.417969 C 153.214844 51.335938 152.972656 51.257812 151.257812 51.5 C 150.363281 52.070312 149.464844 52.234375 148.730469 52.398438 C 147.996094 52.644531 147.507812 52.804688 147.425781 53.296875 C 146.039062 53.132812 146.449219 53.214844 144.082031 53.539062 C 144.652344 53.621094 143.59375 54.03125 142.535156 54.601562 C 141.390625 55.171875 140.25 55.824219 140.414062 56.070312 C 139.269531 55.824219 143.917969 53.867188 140.738281 54.273438 C 139.84375 54.84375 138.457031 55.578125 137.3125 56.148438 C 136.171875 56.800781 135.277344 57.457031 135.277344 57.863281 C 134.460938 58.109375 133.890625 58.269531 133.238281 58.433594 C 132.585938 58.597656 131.769531 58.84375 130.628906 59.414062 C 131.035156 59.25 131.359375 58.921875 131.605469 58.761719 C 130.628906 59.414062 129.566406 59.984375 128.425781 60.636719 C 127.285156 61.207031 126.0625 61.859375 125 62.511719 C 122.796875 63.816406 120.839844 65.039062 120.109375 66.101562 C 120.1875 65.449219 118.230469 66.671875 116.4375 67.8125 C 114.726562 68.957031 113.339844 70.015625 114.398438 68.628906 C 112.929688 69.773438 110.8125 71.890625 110.484375 72.464844 C 110.320312 72.054688 109.34375 72.789062 108.285156 73.6875 C 107.710938 74.175781 107.140625 74.664062 106.570312 75.15625 C 106 75.644531 105.511719 76.050781 105.019531 76.378906 C 104.777344 76.949219 104.042969 77.765625 103.226562 78.582031 C 102.332031 79.394531 101.515625 80.539062 100.945312 81.355469 C 101.433594 80.621094 101.679688 80.128906 101.351562 80.210938 C 100.046875 82.167969 100.210938 81.515625 98.578125 82.742188 C 97.601562 83.964844 97.925781 84.046875 98.171875 83.882812 C 98.496094 83.71875 98.90625 83.554688 98.496094 84.371094 C 96.703125 86.410156 97.84375 84.371094 97.273438 84.535156 L 95.398438 88.289062 C 94.828125 88.859375 94.421875 89.265625 94.09375 89.429688 C 93.523438 90.734375 93.195312 91.957031 91.8125 93.34375 L 93.6875 90.488281 L 92.625 91.386719 L 91.730469 93.261719 C 91.484375 93.914062 91.238281 94.566406 90.996094 95.140625 C 87.734375 99.949219 87.734375 97.992188 87.164062 97.257812 L 88.222656 95.058594 C 87.894531 94.976562 87 96.363281 86.429688 97.339844 C 85.777344 98.15625 87.40625 93.425781 88.710938 90.980469 C 90.75 87.878906 91.160156 87.714844 91.402344 87.796875 C 91.566406 87.796875 91.648438 87.960938 91.890625 87.796875 C 92.136719 87.632812 92.464844 87.144531 93.277344 86.246094 L 94.992188 83.554688 C 95.5625 82.660156 96.132812 81.761719 96.785156 80.945312 L 97.03125 81.109375 C 97.84375 80.457031 98.007812 79.804688 98.171875 79.558594 C 98.171875 79.886719 99.070312 78.90625 100.210938 77.683594 C 101.433594 76.460938 102.820312 74.992188 103.796875 74.175781 L 102.902344 74.339844 C 103.472656 73.605469 104.042969 72.953125 104.613281 72.382812 C 105.183594 71.8125 105.835938 71.320312 106.40625 70.832031 C 106.980469 70.34375 107.550781 69.933594 108.121094 69.527344 C 108.445312 69.363281 108.691406 69.121094 108.9375 68.957031 C 109.261719 68.792969 109.507812 68.628906 109.832031 68.464844 C 112.199219 67.078125 114.316406 65.855469 116.601562 64.144531 C 117.578125 63.246094 118.640625 62.269531 119.699219 61.453125 L 120.679688 61.535156 C 121.65625 60.800781 122.144531 60.308594 122.796875 59.738281 C 123.53125 59.167969 124.429688 58.597656 126.222656 57.863281 C 127.855469 57.210938 129.324219 56.476562 130.953125 55.824219 C 132.585938 55.171875 134.132812 54.519531 135.765625 53.867188 C 137.394531 53.214844 139.027344 52.644531 140.65625 51.992188 C 142.289062 51.335938 144 50.847656 145.632812 50.277344 C 152.320312 48.074219 159.25 46.28125 166.101562 45.464844 C 165.9375 45.382812 165.53125 45.382812 164.632812 45.464844 C 170.75 45.300781 175.316406 44.242188 179.882812 43.671875 C 181.023438 43.507812 182.164062 43.34375 183.308594 43.101562 C 184.449219 42.9375 185.589844 42.855469 186.8125 42.773438 C 188.035156 42.691406 189.179688 42.691406 190.484375 42.691406 C 191.707031 42.691406 193.011719 42.691406 194.398438 42.9375 L 193.664062 43.101562 C 199.207031 43.179688 192.929688 43.261719 196.925781 43.753906 C 197.332031 43.425781 199.046875 43.34375 201.167969 43.34375 C 202.226562 43.34375 203.285156 43.425781 204.347656 43.507812 C 205.40625 43.589844 206.386719 43.671875 207.199219 43.671875 C 206.710938 43.753906 205.570312 43.671875 204.671875 43.671875 C 205.242188 43.914062 205.488281 44.324219 207.039062 44.324219 C 208.832031 43.996094 211.6875 43.996094 214.703125 44.40625 C 217.71875 44.730469 221.0625 45.140625 223.835938 45.628906 C 224.164062 45.953125 225.46875 46.445312 226.933594 47.015625 C 227.667969 47.339844 228.484375 47.585938 229.300781 47.910156 C 230.035156 48.238281 230.769531 48.644531 231.339844 48.972656 C 231.910156 48.972656 233.050781 48.890625 234.03125 48.808594 C 235.90625 49.625 237.453125 49.789062 238.921875 49.949219 C 237.210938 49.460938 235.660156 49.054688 234.519531 48.808594 C 234.601562 48.808594 234.601562 48.808594 234.683594 48.808594 C 234.519531 48.808594 234.191406 48.726562 233.949219 48.644531 C 232.726562 48.320312 232.152344 48.238281 232.398438 48.320312 C 230.277344 47.339844 232.644531 47.992188 232.644531 47.503906 C 234.4375 47.992188 238.1875 48.808594 238.515625 49.296875 C 239.574219 49.625 240.226562 49.949219 241.367188 50.359375 C 242.101562 50.523438 242.753906 50.683594 243.570312 51.011719 L 243.164062 50.929688 C 243.246094 51.011719 243.40625 51.175781 243.570312 51.257812 C 245.203125 51.992188 247.402344 52.398438 249.359375 53.050781 C 251.398438 53.621094 253.355469 54.109375 254.824219 54.519531 C 251.808594 54.03125 255.230469 55.496094 255.070312 55.90625 C 255.394531 55.988281 251.96875 54.601562 247.730469 52.886719 C 248.054688 53.050781 248.21875 53.214844 248.21875 53.457031 C 250.011719 54.4375 251.5625 54.925781 253.4375 55.496094 C 254.335938 55.824219 255.3125 56.070312 256.375 56.476562 C 257.433594 56.964844 258.574219 57.457031 259.796875 58.109375 C 259.472656 58.027344 258.738281 57.78125 258.902344 58.027344 C 260.695312 59.003906 262.570312 59.414062 263.140625 59.414062 C 263.46875 59.984375 267.136719 62.347656 269.09375 63.246094 C 269.992188 63.492188 270.480469 63.574219 271.050781 63.816406 C 271.625 64.0625 272.355469 64.308594 273.824219 65.285156 L 272.355469 64.796875 C 275.699219 67.160156 275.457031 66.101562 278.148438 68.140625 C 277.085938 67.324219 276.761719 67.570312 277.578125 68.140625 C 278.472656 68.628906 279.207031 69.039062 279.777344 69.363281 C 280.347656 69.691406 280.757812 69.933594 281.246094 70.097656 C 282.0625 70.503906 282.875 70.832031 284.261719 71.402344 L 283.527344 71.484375 C 284.34375 71.972656 285.242188 72.542969 286.300781 73.117188 C 287.28125 73.6875 288.339844 74.339844 289.15625 74.992188 C 290.949219 76.296875 292.253906 77.355469 292.089844 77.683594 C 292.011719 76.867188 293.640625 78.011719 295.597656 79.640625 C 297.472656 81.355469 299.59375 83.554688 300.816406 84.617188 C 300 83.882812 299.675781 83.964844 299.511719 83.964844 C 302.203125 85.921875 304.570312 88.367188 306.851562 90.898438 L 310.113281 94.8125 C 311.171875 96.117188 312.152344 97.503906 313.210938 98.808594 C 313.210938 99.21875 313.292969 99.707031 313.292969 100.113281 C 314.355469 101.5 315.332031 102.152344 316.394531 102.886719 C 317.453125 103.621094 318.429688 104.355469 319.492188 105.988281 L 318.429688 105.089844 C 319.410156 106.476562 320.226562 107.699219 321.042969 108.761719 C 321.773438 109.902344 322.347656 110.882812 322.917969 111.777344 C 324.140625 113.652344 325.035156 115.53125 326.421875 117.976562 L 325.933594 118.140625 C 327.15625 119.691406 328.21875 121.972656 329.359375 123.605469 C 329.765625 125.890625 331.886719 129.804688 333.84375 134.371094 C 334.332031 135.515625 334.824219 136.65625 335.3125 137.878906 C 335.800781 139.019531 336.289062 140.246094 336.617188 141.386719 C 337.351562 143.753906 338.003906 146.035156 338.246094 148.15625 L 339.308594 148.402344 C 340.203125 151.417969 341.347656 155.335938 341.019531 156.882812 L 340.855469 156.230469 C 340.449219 156.148438 340.695312 156.964844 340.9375 157.945312 C 341.265625 159.003906 341.671875 160.226562 341.753906 161.207031 C 342.160156 162.675781 342.894531 163.980469 342.8125 162.757812 C 343.058594 164.878906 343.464844 167.160156 343.792969 169.527344 C 344.117188 171.972656 344.527344 174.421875 344.691406 176.785156 C 344.769531 178.007812 344.933594 179.152344 345.015625 180.292969 C 345.097656 181.433594 345.097656 182.496094 345.179688 183.554688 C 345.179688 184.535156 345.179688 185.515625 345.179688 186.410156 C 345.097656 187.226562 345.097656 188.042969 345.015625 188.695312 C 345.179688 190.816406 345.34375 192.773438 345.421875 194.648438 C 345.503906 196.523438 345.667969 198.402344 345.667969 200.277344 C 345.667969 202.152344 345.75 204.109375 345.585938 206.066406 C 345.503906 208.109375 345.34375 210.148438 345.015625 212.429688 L 344.933594 212.347656 C 344.527344 215.367188 343.222656 221.402344 342.40625 221.238281 C 341.835938 224.421875 341.753906 227.113281 341.265625 229.96875 C 340.9375 232.820312 340.285156 235.757812 338.980469 239.429688 C 339.0625 238.859375 339.144531 238.285156 339.144531 237.714844 C 338.492188 239.59375 337.839844 242.691406 337.675781 243.507812 C 337.433594 244.160156 337.433594 243.589844 337.351562 243.507812 C 336.535156 245.21875 336.535156 246.363281 336.046875 247.75 L 335.964844 247.097656 C 335.636719 247.832031 335.3125 248.5625 334.984375 249.378906 C 334.660156 250.195312 334.332031 251.011719 333.925781 251.910156 C 333.597656 252.804688 333.191406 253.703125 332.867188 254.679688 C 332.539062 255.660156 332.050781 256.558594 331.722656 257.535156 C 331.316406 258.515625 330.910156 259.492188 330.5 260.472656 C 330.011719 261.453125 329.605469 262.429688 329.113281 263.410156 C 328.625 264.386719 328.21875 265.367188 327.726562 266.265625 C 327.238281 267.160156 326.75 268.058594 326.179688 268.957031 C 326.832031 267.652344 326.179688 268.140625 325.769531 268.628906 C 325.527344 269.445312 325.117188 270.585938 324.546875 271.808594 C 323.894531 273.035156 323.160156 274.339844 322.347656 275.726562 C 321.53125 277.03125 320.632812 278.335938 319.898438 279.476562 C 319.164062 280.621094 318.511719 281.597656 318.023438 282.332031 C 318.351562 281.679688 318.675781 281.109375 318.921875 280.457031 C 315.578125 286.085938 314.84375 284.453125 311.253906 289.835938 L 314.027344 287.308594 C 312.234375 289.265625 311.011719 291.140625 311.664062 290.898438 C 309.378906 293.019531 310.847656 290.734375 307.75 294.160156 C 307.421875 294.160156 309.789062 291.550781 308.5625 292.445312 C 307.015625 293.914062 305.382812 295.300781 303.753906 296.6875 C 303.589844 296.769531 303.019531 297.339844 301.632812 298.890625 C 302.855469 299.296875 297.964844 302.640625 300.980469 301.175781 C 294.539062 307.617188 288.175781 311.859375 282.222656 316.835938 C 281.816406 316.996094 281.328125 317.160156 280.757812 317.488281 C 280.1875 317.8125 279.535156 318.140625 278.882812 318.546875 C 277.496094 319.363281 276.109375 320.421875 274.640625 321.238281 C 273.253906 322.136719 271.867188 322.953125 270.890625 323.359375 C 269.910156 323.847656 269.257812 323.929688 269.257812 323.523438 C 265.507812 325.726562 262.570312 327.683594 260.453125 329.394531 C 261.265625 329.070312 262.164062 328.417969 262.898438 327.929688 C 262.488281 328.335938 261.105469 329.234375 259.636719 330.046875 C 258.085938 330.863281 256.457031 331.761719 255.476562 332.167969 C 256.699219 331.433594 258.332031 330.375 259.878906 329.476562 C 261.429688 328.5 262.816406 327.4375 263.632812 326.703125 C 261.917969 327.765625 259.878906 328.988281 258.085938 330.046875 C 257.1875 330.621094 256.292969 331.109375 255.558594 331.597656 C 254.742188 332.007812 254.089844 332.414062 253.601562 332.660156 L 252.378906 332.414062 C 249.605469 334.289062 249.605469 332.984375 246.832031 334.941406 L 247.484375 334.941406 C 244.632812 336.085938 243.246094 336.820312 241.941406 337.472656 C 240.636719 338.207031 239.332031 338.859375 236.640625 339.835938 L 236.800781 339.511719 C 235.824219 339.753906 234.765625 340.324219 233.621094 340.734375 C 232.480469 341.140625 231.339844 341.46875 230.277344 341.46875 L 233.867188 340.40625 C 233.378906 340 230.523438 340.652344 229.300781 340.734375 C 225.546875 341.957031 228.160156 341.875 226.28125 342.527344 C 225.386719 342.285156 226.039062 342.363281 227.261719 341.550781 C 225.140625 342.121094 222.695312 342.9375 220.328125 343.589844 C 219.1875 343.914062 218.046875 344.242188 216.984375 344.566406 C 215.925781 344.894531 215.027344 345.136719 214.296875 345.464844 C 214.050781 345.464844 214.296875 345.300781 214.296875 345.300781 C 213.152344 345.464844 212.09375 345.710938 211.035156 345.953125 C 209.972656 346.199219 208.996094 346.363281 208.015625 346.605469 C 207.039062 346.851562 206.140625 347.015625 205.324219 347.175781 C 204.507812 347.257812 203.695312 347.339844 202.960938 347.339844 L 203.855469 347.175781 C 200.1875 346.933594 194.398438 348.644531 193.582031 347.503906 C 191.871094 347.421875 197.496094 347.257812 194.722656 346.851562 C 192.03125 346.851562 191.136719 347.015625 190.320312 347.339844 C 189.503906 347.585938 188.769531 347.992188 186.40625 347.75 C 187.058594 347.828125 186.8125 347.75 187.058594 347.585938 C 185.347656 347.585938 183.308594 347.667969 181.269531 347.585938 C 179.230469 347.503906 177.109375 347.503906 175.152344 347.421875 C 174.011719 347.097656 172.542969 346.851562 170.910156 346.605469 C 170.097656 346.523438 169.199219 346.441406 168.300781 346.363281 C 167.40625 346.28125 166.507812 346.117188 165.609375 346.035156 C 163.816406 345.789062 161.941406 345.546875 160.230469 345.21875 C 158.515625 344.8125 156.96875 344.402344 155.742188 343.832031 C 157.375 344.566406 154.359375 343.996094 154.277344 344.242188 C 154.277344 344.242188 154.519531 344.160156 154.359375 344.078125 C 152.402344 343.671875 152.15625 343.914062 151.339844 343.914062 C 149.871094 343.179688 145.957031 342.9375 144.980469 342.445312 C 144.898438 342.691406 143.347656 342.203125 141.71875 341.632812 C 145.144531 342.363281 142.941406 341.46875 144.570312 341.550781 C 139.597656 339.917969 138.457031 340.976562 133.320312 338.859375 L 130.628906 337.390625 C 129.8125 337.878906 125.164062 335.59375 125.164062 335.921875 C 124.347656 335.351562 123.207031 334.699219 123.53125 334.453125 C 121.414062 333.71875 118.640625 331.925781 117.660156 332.007812 L 119.535156 333.148438 C 118.070312 332.332031 116.683594 331.679688 115.378906 331.191406 C 114.074219 330.539062 112.929688 330.046875 111.789062 329.476562 C 110.648438 328.988281 109.507812 328.417969 108.445312 327.847656 C 107.386719 327.273438 106.328125 326.542969 105.265625 325.808594 L 105.917969 324.910156 C 104.53125 323.847656 103.0625 323.117188 101.757812 322.382812 C 100.453125 321.648438 99.148438 320.832031 98.089844 319.769531 C 98.742188 320.667969 98.988281 320.667969 96.949219 319.769531 C 98.007812 320.585938 100.128906 321.730469 102.003906 322.953125 L 97.765625 320.832031 C 99.800781 322.136719 101.839844 323.441406 104.042969 324.582031 C 101.1875 323.359375 101.351562 323.359375 102.25 324.421875 C 100.292969 323.441406 99.394531 322.542969 98.496094 321.808594 C 97.601562 321.078125 96.703125 320.34375 94.828125 319.28125 C 93.6875 318.222656 95.152344 318.875 93.929688 317.652344 C 92.300781 316.671875 90.996094 315.449219 89.773438 314.304688 C 88.546875 313.164062 87.570312 312.023438 86.347656 311.371094 C 85.777344 310.71875 87.570312 312.347656 87.570312 312.023438 C 85.695312 310.554688 84.390625 309.414062 83.574219 309.167969 L 85.042969 310.636719 C 83.65625 309.414062 83.085938 309.574219 80.800781 306.964844 C 79.171875 305.742188 77.949219 305.335938 79.578125 306.882812 C 78.84375 306.3125 77.703125 304.761719 78.4375 305.007812 C 77.457031 304.109375 76.804688 303.539062 76.316406 303.132812 C 75.828125 302.804688 75.5 302.640625 75.257812 302.480469 C 74.6875 302.152344 74.113281 301.828125 72.484375 299.789062 C 72.730469 300.03125 73.054688 300.277344 72.972656 300.113281 C 72.15625 299.054688 71.34375 298.320312 70.769531 297.667969 C 73.953125 301.09375 70.445312 296.035156 74.035156 300.195312 C 74.035156 299.789062 73.382812 298.972656 72.566406 298.15625 C 71.75 297.339844 70.851562 296.28125 70.363281 295.546875 C 68.324219 293.75 69.546875 295.871094 68.40625 294.976562 C 68.570312 294.894531 67.835938 293.996094 67.101562 292.9375 L 67.589844 294.160156 C 66.855469 293.261719 66.125 292.445312 65.308594 291.46875 L 66.042969 292.285156 L 66.855469 293.097656 C 66.042969 292.203125 65.390625 290.816406 64.410156 289.265625 C 63.921875 288.53125 63.433594 287.714844 62.859375 286.980469 C 62.289062 286.167969 61.636719 285.433594 60.984375 284.535156 C 61.71875 285.433594 63.351562 286.980469 61.882812 284.535156 C 59.109375 280.78125 61.476562 283.554688 60.332031 281.191406 C 59.027344 279.316406 58.785156 279.234375 58.375 278.90625 C 57.96875 278.582031 57.5625 278.007812 55.929688 274.992188 C 55.605469 274.339844 55.683594 275.074219 55.929688 275.808594 C 53.726562 271.730469 52.421875 269.527344 50.710938 265.367188 C 51.445312 267.160156 52.015625 268.628906 50.628906 266.34375 C 51.035156 266.753906 50.710938 265.9375 50.222656 264.714844 C 49.8125 263.492188 49.160156 261.941406 48.917969 261.125 L 48.507812 260.800781 C 48.183594 259.414062 48.835938 260.800781 49.40625 261.777344 C 49.324219 261.777344 49.40625 262.1875 49.730469 262.917969 C 50.792969 264.878906 51.199219 263.816406 49.894531 260.554688 C 48.265625 257.210938 47.9375 257.945312 47.9375 258.679688 C 47.449219 257.535156 47.121094 256.640625 46.796875 255.988281 C 46.46875 255.335938 46.144531 254.84375 45.816406 254.273438 C 45.164062 253.296875 44.59375 252.316406 43.941406 249.949219 C 43.617188 248.890625 43.371094 245.136719 42.554688 241.710938 C 42.148438 240.898438 42.230469 241.957031 42.472656 243.019531 C 42.71875 244.078125 42.882812 245.058594 42.394531 244.160156 C 42.3125 243.425781 42.230469 242.691406 42.066406 241.957031 C 41.984375 241.222656 41.820312 240.488281 41.660156 239.753906 C 41.332031 238.285156 40.84375 236.820312 40.355469 235.269531 C 39.863281 233.71875 39.457031 232.089844 39.132812 230.375 C 38.804688 228.664062 38.398438 226.867188 38.398438 224.910156 L 39.132812 225.808594 C 38.96875 224.011719 38.804688 222.300781 38.480469 220.34375 L 38.480469 222.953125 C 38.316406 222.054688 38.152344 220.585938 38.070312 219.527344 C 37.988281 218.464844 38.152344 217.730469 38.398438 218.386719 C 37.988281 216.425781 37.90625 215.203125 37.828125 214.0625 C 37.828125 213.492188 37.828125 212.921875 37.828125 212.1875 C 37.828125 211.535156 37.828125 210.800781 37.90625 209.820312 C 37.90625 210.800781 37.90625 211.289062 37.90625 211.535156 C 37.90625 211.777344 37.90625 211.777344 37.90625 211.695312 C 37.90625 211.613281 37.988281 211.371094 38.234375 212.757812 C 38.234375 210.71875 38.316406 209.574219 38.316406 208.597656 C 38.316406 207.617188 38.234375 206.882812 38.152344 205.414062 C 38.398438 205.90625 38.722656 204.355469 38.722656 203.296875 C 38.558594 201.988281 38.640625 200.113281 38.722656 198.238281 C 38.722656 197.257812 38.804688 196.28125 38.804688 195.300781 C 38.886719 194.324219 38.96875 193.34375 39.050781 192.367188 L 39.210938 192.367188 C 39.375 190.816406 39.539062 189.183594 39.785156 187.632812 C 40.109375 186.085938 40.515625 184.453125 40.84375 182.902344 C 41.496094 179.722656 42.554688 176.625 43.046875 173.441406 C 43.046875 173.359375 43.046875 173.199219 43.125 173.117188 L 42.964844 173.605469 C 42.394531 174.582031 42.554688 173.359375 43.046875 171.648438 C 43.535156 169.933594 44.1875 167.8125 44.351562 166.835938 C 44.59375 166.507812 44.921875 166.347656 45.328125 165.367188 C 44.839844 165.121094 45.898438 162.921875 45.980469 162.023438 C 46.960938 160.066406 46.46875 162.511719 47.855469 159.085938 C 48.347656 157.78125 48.183594 157.457031 47.9375 157.535156 C 48.507812 156.964844 49.652344 154.84375 50.628906 153.132812 C 50.464844 153.785156 49.8125 154.683594 49.652344 155.089844 C 49.8125 155.414062 50.222656 154.191406 50.628906 154.355469 C 51.445312 152.804688 50.464844 153.539062 51.609375 151.664062 L 51.117188 153.703125 C 51.609375 152.96875 51.933594 151.910156 52.097656 151.5 C 51.609375 152.722656 52.097656 152.722656 52.421875 152.722656 C 54.378906 148.074219 51.851562 151.335938 51.527344 150.847656 C 54.054688 146.769531 55.441406 143.179688 57.398438 140 L 57.480469 140.898438 C 58.375 139.347656 58.785156 138.53125 58.945312 137.878906 L 60.496094 135.59375 C 59.761719 137.0625 59.597656 137.554688 59.84375 137.878906 C 60.660156 136.65625 61.554688 135.1875 62.371094 133.882812 C 63.1875 132.660156 63.757812 131.597656 63.757812 131.027344 L 63.757812 131.191406 C 66.285156 128.089844 71.75 121.890625 71.75 122.300781 C 72.402344 121.484375 73.136719 120.585938 73.871094 119.773438 C 74.605469 118.957031 75.339844 118.222656 75.992188 117.488281 C 77.296875 116.101562 78.191406 115.121094 78.027344 114.796875 C 79.660156 112.839844 83.328125 110.882812 84.144531 109.003906 C 86.671875 107.375 84.390625 109.003906 84.0625 109.984375 C 86.589844 108.351562 88.140625 105.417969 89.527344 105.578125 C 91.972656 103.132812 88.792969 105.988281 89.363281 104.84375 C 90.507812 105.089844 94.421875 100.765625 97.4375 99.296875 C 98.417969 98.15625 96.132812 100.03125 97.925781 98.15625 C 97.84375 98.484375 98.988281 97.667969 99.558594 97.339844 L 99.722656 96.523438 L 103.226562 95.710938 C 106.980469 92.367188 101.839844 95.464844 107.140625 91.550781 L 106.816406 91.792969 C 108.609375 91.304688 110.566406 88.859375 114.890625 86.820312 C 113.421875 87.554688 114.480469 87.390625 114.074219 87.796875 C 114.808594 87.226562 115.542969 86.738281 116.273438 86.246094 C 116.113281 86.410156 116.03125 86.492188 116.273438 86.410156 C 118.476562 85.675781 117.90625 85.1875 120.433594 84.207031 C 118.882812 85.1875 119.535156 85.269531 120.351562 85.105469 L 123.453125 82.742188 L 122.390625 84.207031 C 124.023438 83.3125 125.980469 82.007812 127.855469 80.945312 C 129.648438 79.886719 131.359375 78.988281 132.421875 79.070312 L 130.789062 79.96875 C 131.035156 80.050781 132.257812 80.050781 134.378906 78.664062 C 135.03125 78.253906 135.355469 77.601562 134.378906 78.089844 L 136.171875 77.4375 C 135.847656 77.847656 134.625 78.582031 133.15625 79.398438 C 131.6875 80.210938 130.054688 81.109375 128.75 81.761719 C 129.484375 81.191406 131.441406 80.050781 130.707031 80.050781 C 128.425781 81.273438 126.304688 82.742188 124.183594 84.046875 C 125 83.394531 125.410156 82.824219 125.734375 82.414062 C 123.042969 83.476562 124.023438 83.71875 122.144531 84.78125 C 121.332031 85.023438 120.761719 85.105469 121.167969 84.699219 C 120.027344 85.433594 119.046875 86.085938 117.988281 86.65625 C 116.925781 87.308594 115.785156 87.796875 114.5625 88.449219 C 114.5625 88.449219 115.214844 87.960938 115.621094 87.554688 C 116.03125 87.144531 116.273438 86.820312 115.460938 87.144531 C 111.136719 90.082031 110.566406 91.140625 106.082031 94.566406 C 101.1875 98.890625 95.480469 101.5 92.382812 104.84375 C 92.300781 105.171875 95.234375 103.050781 93.035156 105.007812 C 93.117188 104.355469 91.484375 105.90625 91.238281 105.824219 C 89.203125 108.351562 87.570312 108.761719 86.183594 110.636719 C 86.511719 110.148438 84.960938 111.289062 83.980469 112.023438 C 83.902344 111.371094 81.292969 114.308594 84.0625 110.472656 C 82.597656 112.429688 81.046875 113.816406 79.660156 115.203125 C 78.273438 116.589844 77.050781 117.894531 76.316406 119.691406 L 77.296875 118.875 C 76.152344 119.933594 74.929688 121.078125 73.871094 122.21875 L 74.035156 122.054688 C 72.566406 123.523438 72.484375 123.851562 70.199219 125.644531 C 70.851562 124.585938 71.996094 123.277344 72.730469 122.300781 C 71.667969 123.117188 70.851562 124.175781 70.117188 125.316406 C 69.386719 126.460938 68.652344 127.683594 67.835938 128.824219 C 67.589844 128.5 69.546875 126.378906 68.652344 126.785156 C 67.347656 128.335938 66.53125 129.886719 65.472656 131.4375 L 65.472656 131.109375 C 62.128906 134.863281 65.144531 133.3125 62.453125 135.839844 C 62.617188 135.839844 62.453125 136.328125 62.699219 136.167969 C 61.71875 137.144531 59.597656 139.59375 61.148438 136.820312 C 60.171875 138.289062 59.273438 140.082031 59.027344 140.898438 C 60.089844 139.835938 60.171875 139.429688 60.824219 139.183594 C 59.597656 141.222656 58.457031 143.179688 57.316406 145.21875 C 56.910156 145.871094 57.398438 144.648438 57.886719 143.753906 C 55.277344 146.933594 53.484375 150.765625 51.851562 154.761719 C 50.222656 158.761719 48.671875 162.839844 46.46875 167 C 47.203125 166.101562 46.550781 167.730469 46.46875 168.628906 C 46.226562 169.363281 45.980469 170.097656 45.65625 170.996094 C 45.410156 171.8125 45.082031 172.707031 44.839844 173.605469 C 44.351562 175.398438 43.859375 177.113281 43.371094 178.5 L 43.371094 177.601562 C 43.289062 177.929688 43.125 178.742188 42.964844 179.558594 C 42.882812 180.375 42.71875 181.191406 42.636719 181.925781 C 42.394531 183.472656 42.230469 184.859375 42.066406 186.246094 C 41.742188 188.941406 41.578125 191.304688 41.167969 193.671875 C 41.25 193.914062 40.84375 193.589844 40.84375 192.773438 C 40.84375 194.484375 40.4375 196.445312 40.191406 197.992188 C 39.863281 199.542969 39.703125 200.847656 40.191406 201.335938 L 40.355469 200.03125 C 40.273438 200.929688 40.191406 201.746094 40.191406 202.640625 C 40.191406 203.539062 40.191406 204.4375 40.191406 205.335938 C 40.273438 207.128906 40.273438 208.921875 40.4375 210.800781 C 40.84375 214.46875 41.167969 218.058594 41.742188 221.566406 C 41.332031 223.277344 41.167969 217.488281 40.679688 219.039062 C 40.84375 221.484375 41.167969 224.011719 41.660156 226.460938 C 42.230469 228.988281 42.636719 231.515625 43.125 234.128906 C 42.882812 233.3125 42.800781 233.472656 42.71875 233.066406 C 43.535156 238.367188 43.125 232.332031 44.105469 236.738281 C 43.777344 236.574219 43.777344 236.820312 43.941406 238.285156 L 44.675781 239.429688 C 44.675781 239.671875 44.269531 239.753906 44.023438 239.101562 C 44.269531 239.511719 44.511719 240.246094 44.839844 241.058594 C 45.164062 241.875 45.410156 242.855469 45.734375 243.75 C 46.308594 245.628906 46.878906 247.421875 47.449219 248.074219 C 47.449219 248.484375 46.550781 247.585938 46.550781 248.238281 C 47.203125 250.523438 48.019531 252.070312 48.753906 253.457031 C 48.835938 255.253906 50.628906 259.003906 50.222656 258.1875 C 51.769531 262.265625 50.792969 258.679688 52.421875 261.53125 L 51.28125 258.269531 L 52.503906 261.042969 L 53.15625 262.429688 L 53.890625 263.734375 C 53.484375 263.082031 52.992188 262.429688 52.585938 261.695312 C 52.992188 263 53.808594 264.226562 54.460938 265.53125 C 55.195312 266.835938 56.011719 268.140625 56.746094 269.527344 C 56.582031 269.039062 56.5 268.546875 56.335938 268.058594 C 56.910156 269.117188 57.640625 270.179688 58.292969 271.15625 C 57.886719 271.808594 60.496094 275.316406 58.785156 273.929688 C 59.191406 274.664062 59.597656 275.398438 59.925781 276.132812 C 60.332031 276.785156 60.742188 277.4375 61.148438 278.007812 C 61.964844 279.234375 62.78125 280.375 63.675781 281.433594 C 64.492188 282.578125 65.390625 283.554688 66.285156 284.617188 C 67.183594 285.675781 68.082031 286.820312 69.058594 288.042969 C 68.40625 287.144531 68.570312 287.632812 68.324219 287.472656 C 69.304688 289.019531 70.363281 290 71.261719 290.976562 C 72.15625 291.875 72.972656 292.609375 73.871094 293.34375 C 73.460938 293.179688 72.808594 292.527344 72.648438 292.609375 C 74.035156 294.242188 74.523438 294.730469 75.09375 295.136719 C 75.664062 295.546875 76.316406 296.035156 78.027344 297.667969 C 76.886719 296.933594 77.132812 297.339844 77.949219 298.320312 C 78.027344 297.992188 78.84375 298.644531 79.496094 299.214844 C 77.785156 298.402344 78.601562 299.460938 79.578125 300.601562 C 80.558594 301.746094 81.78125 302.886719 80.558594 302.5625 C 80.964844 302.5625 86.753906 307.128906 85.53125 305.335938 L 84.554688 304.519531 C 84.714844 304.109375 85.859375 305.496094 86.917969 306.230469 C 86.347656 305.824219 85.777344 305.414062 85.695312 305.496094 C 87.082031 306.476562 88.386719 307.535156 89.691406 308.679688 C 90.34375 309.25 90.996094 309.820312 91.730469 310.308594 C 92.464844 310.800781 93.117188 311.371094 93.847656 311.941406 C 95.234375 313 96.621094 314.144531 98.171875 315.203125 C 99.722656 316.183594 101.269531 317.242188 102.820312 318.222656 C 102.167969 317.976562 99.558594 316.507812 101.105469 317.652344 C 107.222656 322.054688 111.382812 323.523438 118.230469 326.703125 C 118.070312 327.683594 110.972656 322.953125 110.320312 323.523438 C 117.335938 327.273438 124.917969 330.539062 133.320312 333.230469 C 134.542969 334.371094 136.660156 334.941406 139.027344 335.59375 C 141.472656 336.167969 144.082031 336.738281 146.609375 338.042969 C 146.203125 337.472656 148.894531 338.042969 151.75 338.695312 C 150.6875 338.777344 153.707031 339.589844 152.808594 339.589844 C 154.113281 339.753906 156.640625 340 158.761719 340.488281 C 159.820312 340.734375 160.800781 340.976562 161.453125 341.140625 C 162.105469 341.304688 162.511719 341.550781 162.429688 341.710938 C 162.839844 341.386719 164.226562 341.550781 165.773438 341.792969 C 167.324219 342.039062 169.035156 342.445312 170.179688 342.203125 C 171.808594 342.527344 173.519531 342.609375 175.398438 342.773438 C 176.292969 342.855469 177.273438 342.855469 178.25 342.9375 C 179.230469 343.015625 180.207031 343.015625 181.269531 343.179688 C 180.535156 342.855469 181.59375 342.9375 182.980469 342.9375 C 184.367188 342.9375 186.160156 342.9375 186.894531 342.855469 C 186.488281 342.855469 185.589844 342.9375 185.835938 343.015625 C 186.488281 343.261719 187.628906 343.179688 188.933594 343.015625 C 190.238281 342.855469 191.707031 342.691406 192.847656 342.773438 C 193.910156 342.9375 192.605469 343.261719 194.316406 343.261719 C 194.316406 342.855469 200.515625 342.121094 202.878906 342.203125 C 201.820312 342.285156 201.820312 342.527344 201.167969 342.691406 C 206.628906 341.875 212.175781 340.976562 217.800781 339.917969 C 223.429688 338.859375 228.890625 337.226562 234.191406 335.1875 C 233.621094 335.59375 233.050781 336.003906 232.480469 336.410156 C 239.410156 334.941406 236.558594 334.046875 241.777344 332.25 C 248.871094 329.722656 256.046875 326.703125 262.898438 323.195312 C 269.746094 319.691406 276.269531 315.613281 282.0625 310.960938 C 282.796875 310.148438 281.410156 311.125 281.164062 311.042969 C 282.222656 310.308594 282.875 310.554688 284.019531 309.25 L 283.527344 309.25 C 284.996094 308.351562 286.628906 307.128906 288.421875 305.742188 C 290.132812 304.273438 291.929688 302.722656 293.558594 301.09375 C 295.273438 299.460938 296.902344 297.910156 298.371094 296.523438 C 299.105469 295.871094 299.839844 295.21875 300.492188 294.730469 C 301.144531 294.160156 301.714844 293.75 302.285156 293.425781 C 306.363281 288.367188 310.03125 285.433594 314.027344 278.660156 C 315.742188 276.867188 312.804688 281.355469 314.84375 278.660156 C 315.496094 277.683594 316.148438 276.542969 316.71875 275.5625 C 317.289062 274.503906 317.941406 273.441406 318.511719 272.382812 L 318.351562 272.707031 C 319.082031 271.078125 320.144531 269.363281 321.285156 267.488281 C 321.855469 266.507812 322.425781 265.613281 323.078125 264.550781 C 323.730469 263.574219 324.382812 262.59375 324.957031 261.535156 C 325.609375 260.472656 326.261719 259.414062 326.832031 258.351562 C 327.484375 257.292969 327.972656 256.148438 328.542969 255.089844 C 329.683594 252.96875 330.582031 250.683594 331.234375 248.5625 L 331.152344 248.890625 C 331.316406 249.136719 332.292969 247.585938 332.703125 246.199219 C 332.703125 245.710938 332.292969 246.523438 331.804688 247.257812 C 332.375 245.382812 332.867188 243.832031 333.273438 242.527344 C 333.679688 241.222656 333.925781 240.082031 334.25 239.019531 C 334.578125 237.960938 334.902344 236.980469 335.148438 235.839844 C 335.476562 234.699219 335.800781 233.472656 336.207031 232.007812 C 335.800781 234.699219 337.1875 229.722656 337.675781 229.558594 C 337.757812 227.929688 336.941406 230.375 337.59375 226.785156 C 337.921875 225.5625 338.164062 224.257812 338.410156 223.035156 C 338.65625 221.8125 338.980469 220.667969 339.226562 219.445312 C 339.472656 218.304688 339.714844 217.160156 339.960938 216.019531 C 340.203125 214.878906 340.449219 213.816406 340.613281 212.757812 C 340.367188 210.960938 340.777344 208.679688 340.285156 208.515625 C 340.367188 207.046875 340.449219 205.742188 340.53125 204.519531 C 340.53125 203.867188 340.613281 203.296875 340.613281 202.722656 C 340.613281 202.152344 340.613281 201.5 340.613281 200.929688 C 340.613281 199.707031 340.695312 198.484375 340.695312 197.015625 C 340.695312 195.628906 340.695312 194.078125 340.695312 192.285156 L 340.855469 192.121094 C 340.53125 191.140625 340.53125 189.59375 340.613281 188.125 C 340.695312 186.65625 340.777344 185.1875 340.53125 184.535156 C 340.777344 184.699219 340.9375 185.515625 341.101562 185.269531 L 340.695312 182.007812 C 341.019531 183.554688 341.671875 184.371094 341.589844 181.679688 C 340.9375 178.90625 341.347656 182.496094 340.855469 181.109375 L 341.429688 180.210938 C 341.183594 178.089844 340.449219 177.601562 340.449219 180.128906 C 339.878906 172.953125 338.410156 166.019531 337.105469 159.738281 L 337.675781 160.308594 C 337.433594 159.414062 337.1875 158.515625 337.023438 157.535156 C 336.78125 156.558594 336.535156 155.660156 336.289062 154.683594 C 335.882812 152.804688 335.476562 151.175781 335.3125 150.113281 C 335.148438 150.03125 334.742188 149.296875 334.742188 149.871094 C 333.027344 145.953125 335.3125 149.21875 333.355469 145.058594 C 333.84375 146.117188 334.332031 147.421875 334.660156 147.585938 C 334.171875 146.199219 333.597656 144.894531 333.109375 143.589844 C 332.539062 142.285156 332.050781 140.898438 331.480469 139.59375 C 331.5625 139.511719 331.316406 138.207031 330.910156 136.410156 C 330.417969 134.699219 329.601562 132.578125 328.789062 130.945312 C 328.542969 130.863281 328.789062 131.925781 329.113281 132.820312 L 328.054688 130.703125 C 328.054688 130.050781 327.972656 129.394531 327.890625 128.742188 L 325.933594 125.96875 L 326.421875 125.644531 C 325.199219 123.441406 324.058594 122.953125 323.160156 121.160156 C 321.53125 117.734375 320.878906 116.425781 320.386719 115.285156 C 319.898438 114.144531 319.492188 113.246094 318.351562 110.800781 C 317.125 110.882812 313.539062 103.703125 312.070312 103.132812 C 311.582031 102.398438 311.09375 101.5 310.519531 100.765625 C 309.949219 99.949219 309.296875 99.136719 308.726562 98.320312 C 307.503906 96.605469 305.953125 94.894531 304.40625 93.179688 C 303.671875 92.285156 302.773438 91.46875 301.957031 90.570312 C 301.144531 89.753906 300.328125 88.859375 299.429688 88.042969 C 297.636719 86.410156 295.925781 84.78125 294.210938 83.148438 L 294.863281 83.636719 C 294.210938 82.902344 293.640625 82.332031 293.070312 81.925781 C 292.5 81.515625 292.011719 81.273438 291.4375 80.945312 C 290.378906 80.375 289.238281 79.804688 287.605469 78.417969 L 288.585938 78.988281 C 288.097656 78.5 287.523438 78.011719 286.953125 77.4375 C 286.628906 77.195312 286.300781 76.867188 285.976562 76.625 C 285.648438 76.378906 285.242188 76.132812 284.914062 75.808594 C 283.449219 74.746094 281.898438 73.6875 280.347656 72.625 C 278.800781 71.566406 277.085938 70.667969 275.539062 69.851562 C 273.988281 69.039062 272.601562 68.304688 271.378906 67.734375 C 272.355469 68.140625 272.113281 67.570312 270.644531 66.753906 C 269.257812 66.265625 271.460938 68.058594 268.933594 66.507812 C 269.664062 66.753906 269.257812 66.265625 268.605469 65.9375 L 265.75 65.039062 C 264.9375 64.550781 264.121094 64.0625 263.222656 63.492188 C 262.410156 63 261.429688 62.511719 260.53125 62.105469 C 258.738281 61.207031 256.863281 60.226562 254.988281 59.25 C 253.03125 58.433594 251.074219 57.617188 249.199219 56.882812 C 248.21875 56.476562 247.242188 56.148438 246.261719 55.742188 C 245.285156 55.417969 244.304688 55.171875 243.324219 54.84375 C 242.019531 54.191406 243.082031 54.355469 243.488281 54.273438 C 241.941406 53.785156 240.472656 53.378906 238.921875 52.886719 C 238.1875 52.644531 237.375 52.480469 236.640625 52.316406 C 235.90625 52.152344 235.089844 51.992188 234.355469 51.828125 C 232.886719 51.5 231.339844 51.175781 229.953125 50.847656 C 228.484375 50.523438 227.015625 50.359375 225.628906 50.03125 L 225.222656 49.296875 C 222.449219 48.726562 223.347656 49.871094 219.921875 48.644531 C 219.515625 48.566406 220.167969 48.566406 220.980469 48.726562 C 221.796875 48.890625 222.859375 49.054688 223.347656 48.972656 C 221.960938 48.566406 221.144531 48.320312 220.492188 48.238281 C 219.839844 48.15625 219.433594 48.238281 219.023438 48.238281 C 218.210938 48.320312 217.394531 48.484375 214.785156 47.992188 L 216.253906 47.503906 C 212.257812 46.445312 211.523438 47.179688 210.054688 47.421875 C 207.117188 47.585938 206.140625 47.097656 204.917969 46.605469 C 204.265625 46.363281 203.613281 46.117188 202.550781 45.871094 C 201.492188 45.710938 200.1875 45.628906 198.148438 45.710938 C 196.925781 46.035156 198.554688 46.28125 197.25 46.527344 C 195.867188 46.445312 194.804688 46.363281 193.910156 46.363281 C 193.011719 46.363281 192.195312 46.445312 191.460938 46.445312 C 189.914062 46.527344 188.363281 46.6875 185.589844 46.605469 C 182.574219 45.628906 188.363281 46.527344 185.183594 45.628906 L 189.421875 45.792969 C 185.753906 45.300781 192.683594 45.628906 192.113281 44.976562 C 190.726562 44.894531 189.015625 45.058594 187.222656 45.21875 C 186.324219 45.300781 185.347656 45.382812 184.449219 45.464844 C 183.550781 45.628906 182.574219 45.710938 181.757812 45.871094 C 181.757812 45.382812 185.835938 45.546875 184.203125 44.976562 L 182.410156 45.300781 C 182.898438 45.140625 182.980469 44.976562 184.039062 44.894531 C 183.386719 44.484375 181.921875 45.058594 180.125 45.140625 C 180.046875 45.382812 180.125 45.710938 180.777344 46.035156 C 180.699219 45.953125 180.535156 45.953125 180.289062 45.871094 C 179.394531 46.117188 178.414062 46.28125 177.273438 46.445312 C 176.703125 46.527344 176.132812 46.527344 175.558594 46.605469 C 174.988281 46.6875 174.417969 46.769531 173.847656 46.851562 C 171.5625 47.179688 169.28125 47.503906 167.8125 47.910156 C 168.300781 47.667969 167.894531 47.75 167.648438 47.667969 C 166.589844 47.75 165.53125 48.15625 164.386719 48.566406 C 163.246094 48.972656 162.023438 49.378906 160.636719 49.707031 C 159.003906 49.707031 161.289062 48.484375 156.886719 49.707031 C 156.152344 50.277344 158.351562 50.441406 154.601562 51.335938 C 154.601562 51.746094 154.765625 51.664062 155.011719 51.582031 Z M 241.695312 53.703125 C 242.101562 53.867188 242.753906 54.03125 243.488281 54.273438 C 242.59375 54.03125 242.101562 53.867188 241.695312 53.703125 Z M 248.464844 55.578125 C 247.730469 55.253906 247.402344 55.335938 247.566406 55.660156 C 248.707031 56.070312 249.769531 56.558594 250.664062 56.882812 C 249.6875 56.3125 248.054688 55.578125 248.464844 55.578125 Z M 235.824219 48.402344 C 235.824219 48.402344 235.90625 48.402344 235.988281 48.402344 C 236.882812 48.644531 237.535156 48.726562 238.105469 48.890625 C 237.945312 48.726562 237.617188 48.566406 236.394531 48.320312 C 236.148438 48.238281 235.988281 48.320312 235.824219 48.402344 Z M 234.03125 48.320312 C 233.867188 48.320312 233.785156 48.320312 233.539062 48.238281 C 233.785156 48.320312 234.03125 48.484375 234.191406 48.566406 C 234.355469 48.566406 234.519531 48.566406 234.683594 48.484375 C 234.519531 48.484375 234.273438 48.402344 234.03125 48.320312 Z M 42.964844 172.789062 L 42.882812 172.953125 C 42.964844 172.789062 42.964844 172.707031 43.046875 172.625 C 43.046875 172.789062 43.046875 172.707031 42.964844 172.789062 Z M 325.6875 126.460938 L 325.769531 126.378906 L 325.363281 125.808594 Z M 62.699219 135.59375 C 62.78125 135.59375 62.941406 135.433594 63.105469 135.1875 C 63.105469 135.1875 62.941406 135.351562 62.699219 135.59375 Z M 74.113281 121.402344 C 74.765625 120.832031 75.339844 120.179688 75.992188 119.609375 C 75.09375 120.425781 74.523438 120.996094 74.113281 121.402344 Z M 84.0625 111.695312 C 84.144531 111.535156 84.144531 111.453125 84.144531 111.371094 Z M 86.753906 306.476562 C 86.917969 306.558594 87.082031 306.722656 87.164062 306.800781 C 88.222656 307.535156 87.570312 307.046875 86.753906 306.476562 Z M 48.671875 253.621094 C 49 254.273438 49.324219 254.84375 49.652344 255.496094 C 49.242188 254.4375 48.917969 253.539062 48.671875 253.621094 Z M 151.585938 338.9375 C 151.75 339.019531 151.828125 339.019531 151.992188 339.019531 Z M 50.792969 258.351562 C 50.464844 257.210938 49.976562 256.3125 49.570312 255.496094 C 49.976562 256.394531 50.382812 257.453125 50.792969 258.351562 Z M 134.378906 78.742188 L 135.03125 78.5 C 135.03125 78.5 135.03125 78.417969 135.03125 78.417969 Z M 135.03125 78.335938 L 135.683594 78.011719 C 135.4375 78.089844 135.113281 78.253906 135.03125 78.335938 Z M 137.070312 77.195312 L 135.683594 77.929688 C 136.253906 77.765625 136.824219 77.519531 137.070312 77.195312 Z M 117.824219 86.902344 L 117.742188 87.144531 C 117.824219 87.0625 117.90625 86.980469 117.824219 86.902344 Z M 113.011719 89.835938 C 114.15625 89.183594 116.113281 88.449219 117.660156 87.390625 L 117.742188 87.144531 C 117.171875 87.796875 113.992188 88.859375 113.011719 89.835938 Z M 92.382812 101.417969 C 93.6875 100.441406 94.910156 99.542969 96.214844 98.644531 C 95.398438 98.972656 94.421875 99.460938 96.050781 98.074219 C 90.996094 101.257812 97.355469 97.585938 92.382812 101.417969 Z M 81.046875 110.882812 C 82.839844 109.085938 80.800781 110.71875 80.800781 110.472656 C 79.824219 111.777344 79.578125 112.105469 81.046875 110.882812 Z M 37.988281 205.742188 L 37.5 205.496094 C 37.582031 207.453125 37.664062 205.496094 37.988281 205.742188 Z M 41.820312 225.808594 C 41.820312 225.15625 41.820312 224.503906 41.902344 223.851562 L 41.332031 223.035156 C 41.496094 224.011719 41.660156 224.910156 41.820312 225.808594 Z M 40.84375 238.285156 L 40.597656 237.472656 L 41.578125 240.652344 Z M 171.074219 346.851562 L 170.503906 346.199219 C 169.199219 346.199219 168.875 346.851562 171.074219 346.851562 Z M 247.160156 334.859375 C 248.054688 334.78125 250.175781 334.207031 251.234375 333.3125 C 249.6875 333.964844 247.972656 334.453125 247.160156 334.859375 Z M 337.675781 143.589844 L 338.328125 145.058594 L 337.1875 142.285156 Z M 337.675781 143.589844"/></g><g clip-path="url(#b)"><path fill="#828282" d="M 178.84375 96.164062 C 179.636719 95.984375 180.445312 95.875 181.257812 95.890625 C 182.609375 95.875 183.921875 96.21875 185.234375 96.484375 C 186.140625 96.671875 187.054688 96.8125 187.972656 96.898438 C 189.824219 97.066406 191.679688 97.226562 193.5 97.617188 C 196.125 98.152344 198.628906 99.136719 201.042969 100.28125 C 204.40625 101.886719 207.640625 103.761719 210.761719 105.800781 C 212.140625 106.722656 213.492188 107.707031 214.675781 108.878906 C 215.046875 109.238281 215.605469 109.554688 216.121094 109.296875 C 216.582031 109.171875 216.789062 108.683594 216.863281 108.25 C 216.847656 107.65625 216.933594 107.066406 216.996094 106.476562 C 217.15625 105.539062 217.921875 104.777344 218.832031 104.558594 C 219.453125 104.34375 220.105469 104.402344 220.746094 104.398438 C 222.636719 104.617188 224.386719 105.417969 226.097656 106.214844 C 227.875 107.058594 229.625 107.960938 231.414062 108.789062 C 232.808594 109.441406 234.246094 109.992188 235.683594 110.527344 C 236.65625 110.902344 237.648438 111.25 238.546875 111.785156 C 239.035156 112.085938 239.519531 112.5 239.660156 113.082031 C 239.8125 113.789062 239.542969 114.492188 239.191406 115.09375 C 238.078125 116.941406 236.285156 118.246094 234.476562 119.351562 C 234.164062 119.546875 233.839844 119.71875 233.566406 119.96875 C 233.578125 119.992188 233.601562 120.042969 233.613281 120.066406 C 234.660156 120.152344 235.71875 120.121094 236.761719 120.261719 C 240.203125 120.613281 243.589844 121.5625 246.6875 123.105469 C 248.253906 123.875 249.769531 124.761719 251.175781 125.796875 C 252.039062 126.445312 252.878906 127.15625 253.5 128.046875 C 254.074219 128.867188 254.394531 129.898438 254.210938 130.898438 C 254.144531 131.539062 253.871094 132.144531 253.867188 132.789062 C 253.867188 133.210938 254.3125 133.375 254.65625 133.449219 C 255.480469 133.617188 256.328125 133.65625 257.160156 133.75 C 259.425781 133.992188 261.667969 134.4375 263.878906 134.976562 C 265.523438 135.386719 267.15625 135.855469 268.738281 136.476562 C 270.628906 137.207031 272.429688 138.167969 274.390625 138.707031 C 274.792969 138.871094 275.316406 138.878906 275.597656 139.257812 C 274.894531 139.597656 274.085938 139.460938 273.34375 139.375 C 271.757812 139.105469 270.253906 138.507812 268.730469 138.003906 C 266.6875 137.308594 264.605469 136.707031 262.46875 136.394531 C 260.433594 136.097656 258.359375 135.992188 256.3125 136.246094 C 254.765625 136.4375 253.246094 136.925781 251.910156 137.738281 C 250.226562 138.746094 248.792969 140.109375 247.394531 141.476562 C 245.273438 143.570312 243.238281 145.75 241.0625 147.785156 C 238.910156 149.816406 236.605469 151.753906 233.917969 153.03125 C 232.113281 153.914062 230.109375 154.460938 228.089844 154.394531 C 225.941406 154.386719 223.871094 153.699219 221.734375 153.558594 C 219.695312 153.410156 217.703125 154.039062 215.847656 154.828125 C 215.265625 155.03125 214.714844 155.375 214.082031 155.378906 C 214.242188 154.832031 214.6875 154.445312 215.039062 154.019531 C 216.222656 152.695312 217.453125 151.410156 218.613281 150.058594 C 219.792969 148.679688 220.871094 147.179688 221.578125 145.496094 C 222.1875 144.070312 222.492188 142.539062 222.683594 141.011719 C 222.992188 138.664062 223 136.285156 223.402344 133.953125 C 223.625 132.679688 224.074219 131.359375 225.074219 130.488281 C 226.230469 129.472656 227.78125 129.097656 229.257812 128.851562 C 231.679688 128.46875 234.144531 128.460938 236.585938 128.539062 C 238.46875 128.636719 240.363281 128.789062 242.199219 129.226562 C 242.964844 129.429688 243.773438 129.652344 244.359375 130.210938 C 244.742188 130.5625 244.871094 131.125 244.738281 131.621094 C 244.53125 132.414062 244.015625 133.078125 243.503906 133.699219 C 242.535156 134.824219 241.4375 135.832031 240.332031 136.816406 C 237.585938 139.226562 234.71875 141.488281 231.894531 143.808594 C 230.128906 145.289062 228.304688 146.722656 226.78125 148.464844 C 226.398438 148.953125 225.953125 149.480469 225.917969 150.132812 C 225.898438 150.550781 226.28125 150.820312 226.628906 150.960938 C 227.917969 151.488281 229.367188 151.46875 230.707031 151.164062 C 232.390625 150.785156 233.945312 150.003906 235.425781 149.136719 C 238.1875 147.484375 240.710938 145.441406 242.976562 143.152344 C 245.097656 141.003906 247.027344 138.664062 248.726562 136.167969 C 249.546875 134.949219 250.332031 133.699219 250.921875 132.351562 C 251.304688 131.46875 251.609375 130.53125 251.660156 129.5625 C 251.691406 128.617188 251.402344 127.636719 250.769531 126.921875 C 250.34375 126.4375 249.804688 126.070312 249.25 125.75 C 247.824219 124.964844 246.285156 124.417969 244.75 123.898438 C 242.570312 123.183594 240.355469 122.566406 238.109375 122.113281 C 236.226562 121.734375 234.300781 121.4375 232.378906 121.59375 C 230.554688 121.726562 228.816406 122.375 227.191406 123.179688 C 224.242188 124.664062 221.492188 126.5 218.644531 128.160156 C 218.152344 128.402344 217.683594 128.757812 217.117188 128.796875 C 217.21875 128.289062 217.613281 127.925781 217.90625 127.527344 C 218.53125 126.746094 219.210938 126 219.742188 125.144531 C 220.007812 124.683594 220.265625 124.175781 220.246094 123.625 C 220.214844 123.117188 219.847656 122.683594 219.398438 122.476562 C 218.945312 122.242188 218.425781 122.238281 217.9375 122.136719 C 217.4375 122.023438 216.945312 122.246094 216.445312 122.230469 C 214.503906 122.425781 212.585938 122.8125 210.652344 123.042969 C 210.136719 123.148438 209.613281 123.085938 209.105469 123.195312 C 208.210938 123.214844 207.164062 123.167969 206.519531 122.457031 C 205.789062 121.640625 205.507812 120.535156 205.289062 119.492188 C 205.214844 118.746094 205.058594 118 205.152344 117.25 C 205.234375 116.71875 205.269531 116.175781 205.453125 115.667969 C 205.734375 114.875 206.117188 114.101562 206.695312 113.484375 C 206.824219 113.332031 207.011719 113.25 207.199219 113.191406 C 207.347656 114.378906 206.972656 115.535156 206.863281 116.707031 C 206.824219 117.285156 206.980469 117.851562 207.152344 118.398438 C 207.378906 119.101562 207.996094 119.6875 208.742188 119.777344 C 209.5625 119.882812 210.375 119.628906 211.15625 119.402344 C 212.253906 119.0625 213.335938 118.65625 214.457031 118.394531 C 215.597656 118.109375 216.769531 117.933594 217.867188 117.507812 C 218.511719 117.261719 219.121094 116.863281 219.507812 116.277344 C 220.046875 115.476562 220.230469 114.511719 220.507812 113.601562 C 220.582031 113.394531 220.675781 113.121094 220.925781 113.085938 C 221.171875 113.140625 221.367188 113.316406 221.546875 113.480469 C 222.1875 114.097656 222.753906 114.785156 223.398438 115.398438 C 224.363281 116.316406 225.398438 117.203125 226.640625 117.71875 C 228.1875 118.355469 229.996094 118.253906 231.484375 117.507812 C 232.550781 116.972656 233.527344 116.207031 234.179688 115.195312 C 234.554688 114.613281 234.796875 113.871094 234.550781 113.1875 C 234.265625 112.40625 233.601562 111.855469 232.960938 111.371094 C 231.671875 110.457031 230.273438 109.714844 228.867188 109.007812 C 227.097656 108.109375 225.289062 107.292969 223.460938 106.527344 C 222.714844 106.25 221.976562 105.9375 221.214844 105.710938 C 220.816406 105.648438 220.4375 105.464844 220.027344 105.503906 C 219.773438 105.515625 219.492188 105.457031 219.277344 105.632812 C 218.851562 105.882812 218.726562 106.398438 218.621094 106.847656 C 218.664062 107.414062 218.550781 107.988281 218.6875 108.546875 C 218.820312 109.398438 219.027344 110.238281 219.351562 111.039062 C 219.316406 111.082031 219.242188 111.167969 219.207031 111.210938 C 218.410156 110.816406 217.539062 110.414062 216.632812 110.523438 C 215.8125 110.675781 215.015625 110.949219 214.273438 111.328125 C 214.011719 111.453125 213.738281 111.261719 213.582031 111.058594 C 212.976562 110.25 212.492188 109.355469 211.839844 108.582031 C 210.273438 106.703125 208.199219 105.320312 206.003906 104.277344 C 204.992188 103.75 203.945312 103.300781 202.875 102.921875 C 201.4375 102.425781 199.972656 101.957031 198.457031 101.804688 C 196.753906 101.59375 195.050781 101.976562 193.449219 102.53125 C 191.742188 103.121094 189.964844 103.539062 188.152344 103.546875 C 186.667969 103.582031 185.160156 103.359375 183.789062 102.769531 C 181.855469 101.949219 180.152344 100.617188 178.117188 100.019531 C 176.097656 99.453125 173.972656 99.898438 172.027344 100.539062 C 170.234375 101.113281 168.53125 101.933594 166.875 102.820312 C 164.792969 104.003906 162.757812 105.339844 161.101562 107.085938 C 159.921875 108.230469 159.011719 109.632812 158.296875 111.105469 C 157.855469 111.957031 157.503906 112.855469 157.042969 113.699219 C 156.945312 113.894531 156.789062 114.046875 156.628906 114.183594 C 156.367188 113.859375 156.3125 113.4375 156.234375 113.042969 C 156.089844 112.246094 155.921875 111.449219 155.660156 110.683594 C 155.40625 109.945312 154.988281 109.234375 154.335938 108.785156 C 153.390625 108.128906 152.242188 107.863281 151.117188 107.714844 C 149.917969 107.566406 148.710938 107.53125 147.503906 107.519531 C 146.550781 107.613281 145.59375 107.574219 144.640625 107.613281 C 139.882812 107.808594 135.140625 108.1875 130.386719 108.449219 C 129.738281 108.53125 129.082031 108.464844 128.433594 108.554688 C 127.628906 108.609375 126.820312 108.5625 126.015625 108.65625 C 122.6875 108.683594 119.351562 108.769531 116.027344 108.527344 C 114.21875 108.433594 112.417969 108.179688 110.648438 107.796875 C 110.226562 107.71875 109.804688 107.589844 109.371094 107.597656 C 109.21875 107.59375 109.0625 107.652344 108.960938 107.769531 C 108.8125 108.488281 109.320312 109.09375 109.679688 109.65625 C 111.1875 111.714844 113.570312 112.949219 115.992188 113.578125 C 118.847656 114.320312 121.824219 114.378906 124.757812 114.3125 C 129.789062 114.117188 134.78125 113.460938 139.796875 113.074219 C 141.882812 112.910156 143.976562 112.769531 146.070312 112.796875 C 147.929688 112.816406 149.832031 112.988281 151.566406 113.714844 C 152.484375 114.097656 153.316406 114.6875 153.960938 115.449219 C 154.269531 115.777344 154.542969 116.21875 155.023438 116.292969 C 155.441406 116.308594 155.722656 115.953125 156.070312 115.78125 C 156.230469 115.695312 156.457031 115.734375 156.542969 115.90625 C 156.757812 116.285156 156.757812 116.738281 156.769531 117.160156 C 156.777344 119.074219 156.289062 120.949219 155.679688 122.75 C 155.113281 124.410156 154.3125 125.980469 153.398438 127.472656 C 151.699219 130.222656 149.832031 132.863281 147.957031 135.492188 C 146.902344 136.9375 145.84375 138.386719 144.621094 139.691406 C 144.171875 140.152344 143.691406 140.617188 143.085938 140.855469 C 142.636719 141.03125 142.128906 140.910156 141.742188 140.644531 C 141.113281 140.210938 140.570312 139.664062 140.070312 139.085938 C 138.722656 137.671875 137.4375 136.199219 136.25 134.648438 C 135.289062 133.355469 134.351562 132.011719 133.800781 130.484375 C 133.503906 129.605469 133.363281 128.5625 133.863281 127.730469 C 134.335938 126.96875 135.253906 126.667969 136.09375 126.5625 C 137.347656 126.449219 138.613281 126.5625 139.855469 126.742188 C 141.925781 127.050781 143.96875 127.523438 146.003906 128.011719 C 147.050781 128.25 148.089844 128.523438 149.152344 128.691406 C 149.75 128.753906 150.4375 128.824219 150.9375 128.414062 C 151.625 127.867188 152.144531 127.039062 152.203125 126.148438 C 152.257812 125.542969 151.933594 124.964844 151.480469 124.585938 C 150.945312 124.140625 150.304688 123.84375 149.660156 123.597656 C 147.988281 122.917969 146.21875 122.539062 144.457031 122.175781 C 142.46875 121.804688 140.46875 121.503906 138.457031 121.347656 C 136.785156 121.222656 135.09375 121.171875 133.433594 121.441406 C 132.3125 121.628906 131.117188 121.964844 130.34375 122.855469 C 129.636719 123.6875 129.441406 124.816406 129.382812 125.875 C 129.3125 128.605469 129.8125 131.335938 130.734375 133.894531 C 131.097656 134.757812 131.429688 135.632812 131.839844 136.472656 C 133.097656 138.90625 134.675781 141.171875 136.457031 143.25 C 137.347656 144.242188 138.253906 145.257812 139.414062 145.941406 C 139.933594 146.242188 140.558594 146.453125 141.15625 146.273438 C 141.390625 146.214844 141.605469 146.070312 141.847656 146.070312 C 142.089844 146.316406 142.179688 146.660156 142.335938 146.960938 C 143.011719 148.441406 143.941406 149.785156 144.734375 151.203125 C 145.746094 153.007812 146.648438 154.90625 147.101562 156.9375 C 147.5 158.65625 147.484375 160.4375 147.339844 162.1875 C 147.09375 164.035156 146.722656 165.871094 146.15625 167.648438 C 145.4375 169.988281 144.554688 172.28125 143.5 174.492188 C 142.722656 176.199219 141.757812 177.816406 140.816406 179.433594 C 139.589844 181.300781 138.292969 183.121094 136.929688 184.890625 C 136.085938 185.992188 135.238281 187.089844 134.421875 188.214844 C 133.796875 189.109375 133.15625 190.003906 132.730469 191.015625 C 132.503906 191.601562 132.285156 192.28125 132.570312 192.886719 C 132.851562 193.445312 133.488281 193.675781 134.0625 193.800781 C 135.332031 194.058594 136.640625 193.984375 137.925781 194.089844 C 139.191406 194.125 140.421875 194.421875 141.660156 194.65625 C 142.894531 194.90625 144.183594 194.941406 145.421875 194.683594 C 147.066406 194.355469 148.65625 193.816406 150.292969 193.453125 C 151.667969 193.144531 153.074219 192.941406 154.488281 192.953125 C 155.542969 192.96875 156.628906 193.085938 157.597656 193.542969 C 158.285156 193.855469 158.855469 194.40625 159.210938 195.078125 C 159.644531 195.894531 159.796875 196.828125 159.886719 197.742188 C 160 199.941406 159.6875 202.160156 158.960938 204.238281 C 158.347656 205.777344 157.570312 207.285156 156.449219 208.519531 C 156.105469 208.835938 155.894531 209.273438 155.519531 209.5625 C 155.035156 209.910156 154.628906 210.347656 154.140625 210.691406 C 152.449219 211.96875 150.453125 212.949219 148.316406 213.105469 C 146.597656 213.269531 144.660156 212.9375 143.429688 211.621094 C 142.980469 211.222656 142.738281 210.660156 142.496094 210.125 C 142.085938 209.109375 141.875 208.007812 141.898438 206.910156 C 141.894531 205.867188 142.058594 204.78125 142.59375 203.871094 C 143.207031 202.847656 144.246094 202.191406 145.246094 201.585938 C 146.855469 200.632812 148.519531 199.785156 150.164062 198.894531 C 151.621094 198.113281 153.078125 197.316406 154.414062 196.335938 C 154.953125 196.011719 155.515625 195.546875 156.1875 195.644531 C 156.855469 195.746094 157.292969 196.320312 157.621094 196.859375 C 157.632812 196.53125 157.664062 196.203125 157.628906 195.875 C 157.460938 195.609375 157.121094 195.5625 156.847656 195.460938 C 155.976562 195.242188 155.0625 195.144531 154.167969 195.277344 C 151.726562 195.550781 149.328125 196.121094 146.949219 196.738281 C 145.421875 197.160156 143.886719 197.59375 142.441406 198.25 C 141.605469 198.628906 140.867188 199.226562 140.3125 199.960938 C 139.910156 200.425781 139.609375 200.992188 139.101562 201.359375 C 138.816406 201.582031 138.441406 201.316406 138.292969 201.050781 C 137.546875 199.835938 137.351562 198.355469 136.5 197.199219 C 136.136719 196.726562 135.558594 196.429688 134.96875 196.378906 C 134.738281 196.347656 134.503906 196.566406 134.667969 196.785156 C 135.167969 197.441406 135.785156 198.003906 136.273438 198.675781 C 136.585938 199.238281 136.527344 199.976562 136.21875 200.535156 C 135.769531 201.398438 135.269531 202.230469 134.84375 203.105469 C 134.101562 204.660156 133.285156 206.195312 132.191406 207.527344 C 131.75 207.898438 131.390625 208.386719 130.839844 208.597656 C 130.425781 208.25 130.535156 207.667969 130.574219 207.195312 C 130.828125 204.910156 131.503906 202.667969 131.429688 200.351562 C 131.445312 199.242188 131.246094 198.140625 130.984375 197.066406 C 130.863281 196.671875 130.789062 196.230469 130.492188 195.917969 C 130.167969 196.421875 130.097656 197.03125 129.980469 197.605469 C 129.5625 200.089844 129.324219 202.601562 129.152344 205.113281 C 129.078125 205.738281 129.132812 206.371094 129.050781 206.996094 C 128.984375 208.175781 129.039062 209.359375 129.136719 210.535156 C 129.273438 211.601562 129.5 212.691406 130.09375 213.601562 C 130.789062 214.695312 131.933594 215.402344 133.113281 215.875 C 134.84375 216.554688 136.691406 216.867188 138.523438 217.113281 C 140.761719 217.429688 143.015625 217.585938 145.242188 217.96875 C 147.199219 218.28125 149.128906 218.75 151.0625 219.179688 C 153.066406 219.625 155.109375 220.03125 157.171875 219.988281 C 158.523438 219.972656 159.859375 219.753906 161.195312 219.582031 C 161.851562 219.507812 162.515625 219.417969 163.179688 219.496094 C 164.214844 219.582031 165.1875 220 166.214844 220.125 C 167.664062 220.292969 169.230469 220.191406 170.480469 219.367188 C 171.671875 218.554688 172.398438 217.25 172.988281 215.964844 C 173.777344 214.234375 174.242188 212.363281 175.183594 210.707031 C 175.554688 210.078125 176.042969 209.445312 176.761719 209.222656 C 177.507812 208.992188 178.289062 209.21875 179.011719 209.429688 C 180.554688 209.925781 182.0625 210.5625 183.667969 210.816406 C 186.96875 211.378906 190.503906 210.730469 193.292969 208.835938 C 195.984375 207.03125 198.046875 204.414062 199.582031 201.582031 C 201.171875 198.621094 202.1875 195.40625 203.234375 192.226562 C 203.777344 190.5625 204.324219 188.894531 205.035156 187.292969 C 205.414062 186.4375 205.8125 185.589844 206.328125 184.808594 C 206.492188 184.578125 206.660156 184.300781 206.964844 184.246094 C 207.035156 184.875 206.871094 185.5 206.746094 186.117188 C 206.316406 188.0625 205.789062 189.984375 205.289062 191.914062 C 204.25 195.808594 203.207031 199.714844 201.773438 203.484375 C 201.15625 205.125 200.484375 206.746094 199.675781 208.300781 C 198.882812 210.011719 197.804688 211.566406 196.695312 213.085938 C 196.34375 213.613281 195.867188 214.03125 195.480469 214.53125 C 194.933594 215.03125 194.457031 215.605469 193.882812 216.074219 C 192.425781 217.367188 190.75 218.4375 188.90625 219.085938 C 187.796875 219.453125 186.636719 219.664062 185.472656 219.765625 C 184.664062 219.871094 183.847656 219.8125 183.039062 219.886719 C 181.304688 219.953125 179.441406 219.78125 177.863281 220.652344 C 176.292969 221.4375 175.441406 223.339844 175.757812 225.050781 C 175.976562 226.429688 176.726562 227.636719 177.253906 228.910156 C 177.546875 229.617188 177.707031 230.398438 177.582031 231.167969 C 177.53125 231.625 177.476562 232.179688 177.832031 232.539062 C 178.304688 232.980469 178.96875 233.109375 179.582031 233.234375 C 182.675781 233.785156 185.828125 233.453125 188.949219 233.554688 C 189.789062 233.621094 190.699219 233.679688 191.40625 234.191406 C 192.109375 234.75 192.265625 235.691406 192.515625 236.5 C 192.972656 238.203125 194.039062 239.640625 195.039062 241.054688 C 195.390625 241.605469 195.902344 242.117188 195.964844 242.800781 C 195.476562 242.730469 195.164062 242.308594 194.824219 241.992188 C 193.601562 240.675781 192.496094 239.238281 191.136719 238.058594 C 190.539062 237.535156 189.914062 237.03125 189.191406 236.691406 C 187.445312 235.773438 185.429688 235.660156 183.5 235.601562 C 181.1875 235.46875 178.855469 235.386719 176.585938 234.867188 C 175.117188 234.527344 173.652344 233.960938 172.546875 232.898438 C 172.007812 232.398438 171.554688 231.78125 171.351562 231.0625 C 171.023438 229.921875 171.21875 228.703125 170.859375 227.570312 C 170.628906 226.855469 170.320312 226.148438 169.835938 225.570312 C 169.542969 225.226562 169.304688 224.84375 168.972656 224.542969 C 168.191406 223.839844 167.367188 223.179688 166.433594 222.691406 C 165.890625 222.417969 165.316406 222.125 164.691406 222.160156 C 164.050781 222.167969 163.511719 222.5625 163.003906 222.90625 C 161.953125 223.660156 160.867188 224.390625 159.644531 224.839844 C 158.574219 225.253906 157.421875 225.457031 156.277344 225.402344 C 153.820312 225.292969 151.46875 224.480469 149.035156 224.207031 C 147.210938 223.992188 145.328125 224.1875 143.546875 223.648438 C 142.148438 223.203125 140.9375 222.347656 139.75 221.511719 C 138.320312 220.492188 136.957031 219.304688 135.269531 218.734375 C 133.511719 218.117188 131.597656 218.363281 129.824219 217.820312 C 129.007812 217.578125 128.339844 216.933594 127.988281 216.164062 C 127.507812 215.308594 127.296875 214.335938 127.105469 213.382812 C 126.917969 212.195312 126.839844 210.988281 126.871094 209.785156 C 126.960938 207.996094 127.109375 206.207031 127.269531 204.421875 C 127.449219 202.480469 127.53125 200.527344 127.71875 198.585938 C 127.847656 197.25 128.035156 195.910156 128.4375 194.625 C 128.8125 193.378906 129.4375 192.21875 130.199219 191.167969 C 131.367188 189.574219 132.796875 188.203125 134.183594 186.808594 C 135.910156 185.089844 137.601562 183.320312 139.003906 181.316406 C 141.484375 177.789062 142.929688 173.605469 143.558594 169.355469 C 143.941406 166.625 143.984375 163.84375 143.640625 161.109375 C 143.390625 159.203125 142.972656 157.300781 142.21875 155.523438 C 141.5625 153.972656 140.609375 152.570312 139.601562 151.230469 C 136.675781 147.398438 133.800781 143.5 131.480469 139.261719 C 131.285156 138.886719 131.117188 138.5 130.886719 138.144531 C 129.96875 136.449219 129.226562 134.648438 128.722656 132.785156 C 128.023438 130.21875 127.804688 127.53125 128.019531 124.882812 C 128.074219 123.9375 128.144531 122.945312 128.605469 122.097656 C 129.015625 121.34375 129.820312 120.925781 130.609375 120.6875 C 132.082031 120.25 133.621094 120.125 135.148438 120.035156 C 139.078125 119.847656 143.035156 120.210938 146.863281 121.136719 C 148.089844 121.414062 149.304688 121.753906 150.523438 122.058594 C 151.414062 122.285156 152.308594 122.511719 153.230469 122.566406 C 153.714844 122.585938 154.25 122.492188 154.605469 122.128906 C 155.097656 121.671875 155.183594 120.921875 155.035156 120.292969 C 154.9375 119.867188 154.53125 119.628906 154.164062 119.457031 C 153.34375 119.105469 152.453125 118.957031 151.574219 118.824219 C 149.542969 118.542969 147.492188 118.457031 145.445312 118.339844 C 144.429688 118.316406 143.414062 118.226562 142.394531 118.21875 C 140.847656 118.109375 139.292969 118.148438 137.746094 118.046875 C 135.144531 117.996094 132.550781 117.835938 129.949219 117.765625 C 127.050781 117.589844 124.140625 117.402344 121.265625 116.964844 C 118.867188 116.597656 116.472656 116.050781 114.265625 115.015625 C 112.367188 114.113281 110.59375 112.898438 109.199219 111.3125 C 108.460938 110.382812 107.59375 109.351562 107.683594 108.082031 C 107.65625 107.484375 108.167969 106.992188 108.738281 106.917969 C 109.691406 106.773438 110.648438 106.992188 111.585938 107.136719 C 113.628906 107.503906 115.699219 107.765625 117.777344 107.773438 C 120.167969 107.804688 122.558594 107.621094 124.933594 107.390625 C 131.0625 106.746094 137.152344 105.78125 143.296875 105.316406 C 146.988281 105.011719 150.695312 105.054688 154.398438 105.058594 C 156.421875 105.035156 158.492188 105.0625 160.445312 104.457031 C 161.691406 104.078125 162.800781 103.390625 163.894531 102.703125 C 165.367188 101.773438 166.917969 100.972656 168.488281 100.21875 C 170.328125 99.339844 172.195312 98.519531 174.082031 97.746094 C 175.632812 97.121094 177.210938 96.535156 178.84375 96.164062 Z M 178.84375 96.164062"/></g><path fill="#828282" d="M 193.746094 149.289062 C 196.019531 149.125 198.300781 149.460938 200.492188 150.054688 C 201.953125 150.449219 203.394531 150.945312 204.75 151.628906 C 205.378906 151.953125 206.019531 152.308594 206.480469 152.863281 C 206.703125 153.125 206.839844 153.535156 206.636719 153.851562 C 206.328125 154.34375 205.757812 154.5625 205.226562 154.707031 C 204.085938 155.007812 202.894531 155.125 201.789062 155.546875 C 200.382812 156.046875 199.238281 157.027344 198.097656 157.957031 C 196.925781 158.941406 195.71875 159.9375 194.289062 160.523438 C 193.308594 160.917969 192.222656 161.148438 191.171875 160.957031 C 189.851562 160.742188 188.679688 160 187.703125 159.117188 C 187.089844 158.59375 186.5625 157.980469 186.042969 157.371094 C 185.417969 156.601562 184.824219 155.792969 184.367188 154.90625 C 184.175781 154.507812 183.972656 154.03125 184.179688 153.597656 C 184.429688 153.066406 184.933594 152.726562 185.390625 152.390625 C 187.863281 150.6875 190.75 149.542969 193.746094 149.289062 Z M 193.746094 149.289062"/><path fill="#828282" d="M 234.542969 160.652344 C 234.570312 160.492188 234.753906 160.238281 234.898438 160.449219 C 235.148438 160.898438 235.210938 161.425781 235.316406 161.921875 C 235.65625 163.90625 235.804688 165.914062 235.917969 167.921875 C 235.90625 168.824219 236.027344 169.714844 235.992188 170.617188 C 236.023438 171.457031 235.914062 172.289062 235.921875 173.132812 C 235.738281 177.207031 235.132812 181.277344 233.929688 185.175781 C 232.753906 189.03125 231.160156 192.75 229.246094 196.292969 C 227.621094 199.304688 225.769531 202.199219 223.675781 204.914062 C 221.039062 208.308594 218.085938 211.46875 214.839844 214.289062 C 214.511719 214.5625 214.203125 214.871094 213.828125 215.089844 C 214.238281 214.539062 214.730469 214.0625 215.167969 213.535156 C 217.5625 210.816406 219.777344 207.945312 221.867188 204.988281 C 223.933594 202.046875 225.902344 199.035156 227.679688 195.910156 C 229.445312 192.804688 231.027344 189.554688 231.925781 186.082031 C 233 181.976562 233.085938 177.710938 233.375 173.507812 C 233.554688 170.417969 233.730469 167.324219 233.988281 164.242188 C 234.125 163.039062 234.1875 161.8125 234.542969 160.652344 Z M 234.542969 160.652344"/><g clip-path="url(#c)"><g clip-path="url(#d)"><g clip-path="url(#e)"><path fill="#737373" d="M 192.296875 314.550781 C 192.300781 314.558594 192.308594 314.570312 192.316406 314.578125 L 192.296875 314.550781"/></g></g></g><g clip-path="url(#f)"><g clip-path="url(#g)"><g clip-path="url(#h)"><path fill="#737373" d="M 214.335938 293.738281 C 216.929688 297.605469 215.898438 302.839844 212.039062 305.429688 C 208.175781 308.019531 202.945312 306.984375 200.351562 303.117188 C 197.757812 299.253906 198.789062 294.019531 202.648438 291.429688 C 206.511719 288.839844 211.742188 289.875 214.335938 293.738281"/></g></g></g><g clip-path="url(#i)"><g clip-path="url(#j)"><g clip-path="url(#k)"><path fill="#A6A6A6" d="M 219.96875 291.351562 C 224.589844 298.246094 222.75 307.609375 215.867188 312.226562 C 209.527344 316.476562 201.089844 315.246094 196.183594 309.644531 C 196.105469 309.558594 196.085938 309.566406 196.152344 309.664062 C 189.371094 301.316406 177.1875 299.351562 168.09375 305.453125 C 158.457031 311.917969 155.878906 325.027344 162.351562 334.675781 L 167.34375 331.324219 C 162.722656 324.433594 164.5625 315.070312 171.449219 310.449219 C 177.785156 306.199219 186.222656 307.433594 191.128906 313.03125 C 191.207031 313.121094 191.226562 313.109375 191.160156 313.011719 C 197.941406 321.363281 210.125 323.328125 219.21875 317.226562 C 228.859375 310.761719 231.433594 297.652344 224.960938 288.003906 Z M 169.238281 288.65625 C 171.828125 292.523438 170.800781 297.757812 166.941406 300.347656 C 163.078125 302.9375 157.847656 301.902344 155.253906 298.035156 C 152.660156 294.167969 153.6875 288.9375 157.550781 286.347656 C 161.410156 283.757812 166.644531 284.792969 169.238281 288.65625"/></g></g></g><g><g><g><path d="M 13.390625 -1.40625 L 13.390625 0 L 2.515625 0 L 2.515625 -15.40625 L 13.0625 -15.40625 L 13.0625 -13.984375 L 4.140625 -13.984375 L 4.140625 -8.515625 L 12.09375 -8.515625 L 12.09375 -7.125 L 4.140625 -7.125 L 4.140625 -1.40625 Z M 13.390625 -1.40625" transform="translate(62.221 263.63)"/></g></g></g><g><g><g><path d="M 16.609375 -11.65625 C 18.054688 -11.65625 19.195312 -11.238281 20.03125 -10.40625 C 20.863281 -9.570312 21.28125 -8.335938 21.28125 -6.703125 L 21.28125 0 L 19.71875 0 L 19.71875 -6.5625 C 19.71875 -7.757812 19.425781 -8.671875 18.84375 -9.296875 C 18.257812 -9.929688 17.441406 -10.25 16.390625 -10.25 C 15.191406 -10.25 14.242188 -9.878906 13.546875 -9.140625 C 12.859375 -8.398438 12.515625 -7.378906 12.515625 -6.078125 L 12.515625 0 L 10.953125 0 L 10.953125 -6.5625 C 10.953125 -7.757812 10.660156 -8.671875 10.078125 -9.296875 C 9.503906 -9.929688 8.679688 -10.25 7.609375 -10.25 C 6.421875 -10.25 5.476562 -9.878906 4.78125 -9.140625 C 4.082031 -8.398438 3.734375 -7.378906 3.734375 -6.078125 L 3.734375 0 L 2.171875 0 L 2.171875 -11.578125 L 3.671875 -11.578125 L 3.671875 -9.453125 C 4.085938 -10.160156 4.660156 -10.703125 5.390625 -11.078125 C 6.117188 -11.460938 6.960938 -11.65625 7.921875 -11.65625 C 8.890625 -11.65625 9.726562 -11.445312 10.4375 -11.03125 C 11.144531 -10.625 11.675781 -10.019531 12.03125 -9.21875 C 12.457031 -9.976562 13.066406 -10.570312 13.859375 -11 C 14.660156 -11.4375 15.578125 -11.65625 16.609375 -11.65625 Z M 16.609375 -11.65625" transform="translate(76.936 263.63)"/></g></g></g><g><g><g><path d="M 8.140625 -11.65625 C 9.222656 -11.65625 10.203125 -11.410156 11.078125 -10.921875 C 11.960938 -10.429688 12.65625 -9.738281 13.15625 -8.84375 C 13.65625 -7.945312 13.90625 -6.925781 13.90625 -5.78125 C 13.90625 -4.625 13.65625 -3.597656 13.15625 -2.703125 C 12.65625 -1.804688 11.96875 -1.113281 11.09375 -0.625 C 10.226562 -0.132812 9.242188 0.109375 8.140625 0.109375 C 7.203125 0.109375 6.351562 -0.0820312 5.59375 -0.46875 C 4.84375 -0.863281 4.222656 -1.429688 3.734375 -2.171875 L 3.734375 4.265625 L 2.171875 4.265625 L 2.171875 -11.578125 L 3.671875 -11.578125 L 3.671875 -9.28125 C 4.140625 -10.039062 4.757812 -10.625 5.53125 -11.03125 C 6.300781 -11.445312 7.171875 -11.65625 8.140625 -11.65625 Z M 8.03125 -1.28125 C 8.832031 -1.28125 9.5625 -1.460938 10.21875 -1.828125 C 10.882812 -2.203125 11.40625 -2.734375 11.78125 -3.421875 C 12.15625 -4.117188 12.34375 -4.90625 12.34375 -5.78125 C 12.34375 -6.664062 12.15625 -7.445312 11.78125 -8.125 C 11.40625 -8.8125 10.882812 -9.34375 10.21875 -9.71875 C 9.5625 -10.101562 8.832031 -10.296875 8.03125 -10.296875 C 7.207031 -10.296875 6.46875 -10.101562 5.8125 -9.71875 C 5.164062 -9.34375 4.65625 -8.8125 4.28125 -8.125 C 3.90625 -7.445312 3.71875 -6.664062 3.71875 -5.78125 C 3.71875 -4.90625 3.90625 -4.117188 4.28125 -3.421875 C 4.65625 -2.734375 5.164062 -2.203125 5.8125 -1.828125 C 6.46875 -1.460938 7.207031 -1.28125 8.03125 -1.28125 Z M 8.03125 -1.28125" transform="translate(100.274 263.63)"/></g></g></g><g><g><g><path d="M 2.328125 0.109375 C 2.003906 0.109375 1.726562 -0.00390625 1.5 -0.234375 C 1.28125 -0.472656 1.171875 -0.757812 1.171875 -1.09375 C 1.171875 -1.4375 1.28125 -1.71875 1.5 -1.9375 C 1.726562 -2.164062 2.003906 -2.28125 2.328125 -2.28125 C 2.648438 -2.28125 2.925781 -2.164062 3.15625 -1.9375 C 3.394531 -1.71875 3.515625 -1.4375 3.515625 -1.09375 C 3.515625 -0.757812 3.394531 -0.472656 3.15625 -0.234375 C 2.925781 -0.00390625 2.648438 0.109375 2.328125 0.109375 Z M 2.328125 0.109375" transform="translate(115.188 263.63)"/></g></g></g><g><g><g><path d="M 6.75 0.125 C 5.601562 0.125 4.503906 -0.0546875 3.453125 -0.421875 C 2.410156 -0.785156 1.601562 -1.269531 1.03125 -1.875 L 1.671875 -3.125 C 2.234375 -2.5625 2.972656 -2.109375 3.890625 -1.765625 C 4.816406 -1.421875 5.769531 -1.25 6.75 -1.25 C 8.132812 -1.25 9.171875 -1.5 9.859375 -2 C 10.546875 -2.507812 10.890625 -3.171875 10.890625 -3.984375 C 10.890625 -4.597656 10.703125 -5.085938 10.328125 -5.453125 C 9.953125 -5.816406 9.492188 -6.097656 8.953125 -6.296875 C 8.410156 -6.492188 7.65625 -6.710938 6.6875 -6.953125 C 5.53125 -7.242188 4.601562 -7.523438 3.90625 -7.796875 C 3.21875 -8.066406 2.628906 -8.476562 2.140625 -9.03125 C 1.648438 -9.59375 1.40625 -10.351562 1.40625 -11.3125 C 1.40625 -12.082031 1.609375 -12.785156 2.015625 -13.421875 C 2.429688 -14.066406 3.0625 -14.578125 3.90625 -14.953125 C 4.757812 -15.335938 5.816406 -15.53125 7.078125 -15.53125 C 7.960938 -15.53125 8.828125 -15.410156 9.671875 -15.171875 C 10.515625 -14.929688 11.242188 -14.597656 11.859375 -14.171875 L 11.3125 -12.875 C 10.664062 -13.300781 9.972656 -13.617188 9.234375 -13.828125 C 8.503906 -14.035156 7.785156 -14.140625 7.078125 -14.140625 C 5.734375 -14.140625 4.71875 -13.878906 4.03125 -13.359375 C 3.351562 -12.835938 3.015625 -12.171875 3.015625 -11.359375 C 3.015625 -10.734375 3.203125 -10.234375 3.578125 -9.859375 C 3.953125 -9.492188 4.421875 -9.210938 4.984375 -9.015625 C 5.546875 -8.816406 6.304688 -8.597656 7.265625 -8.359375 C 8.390625 -8.078125 9.300781 -7.800781 10 -7.53125 C 10.695312 -7.257812 11.285156 -6.847656 11.765625 -6.296875 C 12.253906 -5.753906 12.5 -5.007812 12.5 -4.0625 C 12.5 -3.289062 12.285156 -2.582031 11.859375 -1.9375 C 11.441406 -1.300781 10.800781 -0.796875 9.9375 -0.421875 C 9.070312 -0.0546875 8.007812 0.125 6.75 0.125 Z M 6.75 0.125" transform="translate(125.614 263.63)"/></g></g></g><g><g><g><path d="M 6.21875 -11.65625 C 7.726562 -11.65625 8.882812 -11.273438 9.6875 -10.515625 C 10.5 -9.765625 10.90625 -8.648438 10.90625 -7.171875 L 10.90625 0 L 9.421875 0 L 9.421875 -1.796875 C 9.066406 -1.203125 8.546875 -0.734375 7.859375 -0.390625 C 7.179688 -0.0546875 6.375 0.109375 5.4375 0.109375 C 4.144531 0.109375 3.113281 -0.195312 2.34375 -0.8125 C 1.582031 -1.425781 1.203125 -2.238281 1.203125 -3.25 C 1.203125 -4.238281 1.554688 -5.03125 2.265625 -5.625 C 2.984375 -6.226562 4.117188 -6.53125 5.671875 -6.53125 L 9.34375 -6.53125 L 9.34375 -7.234375 C 9.34375 -8.234375 9.0625 -8.992188 8.5 -9.515625 C 7.945312 -10.035156 7.140625 -10.296875 6.078125 -10.296875 C 5.335938 -10.296875 4.628906 -10.171875 3.953125 -9.921875 C 3.285156 -9.679688 2.707031 -9.351562 2.21875 -8.9375 L 1.515625 -10.09375 C 2.097656 -10.59375 2.800781 -10.976562 3.625 -11.25 C 4.445312 -11.519531 5.3125 -11.65625 6.21875 -11.65625 Z M 5.671875 -1.125 C 6.554688 -1.125 7.3125 -1.320312 7.9375 -1.71875 C 8.570312 -2.125 9.039062 -2.707031 9.34375 -3.46875 L 9.34375 -5.375 L 5.71875 -5.375 C 3.738281 -5.375 2.75 -4.679688 2.75 -3.296875 C 2.75 -2.617188 3.003906 -2.085938 3.515625 -1.703125 C 4.035156 -1.316406 4.753906 -1.125 5.671875 -1.125 Z M 5.671875 -1.125" transform="translate(139.141 263.63)"/></g></g></g><g><g><g><path d="M 8.078125 -11.65625 C 9.523438 -11.65625 10.675781 -11.234375 11.53125 -10.390625 C 12.394531 -9.546875 12.828125 -8.316406 12.828125 -6.703125 L 12.828125 0 L 11.265625 0 L 11.265625 -6.5625 C 11.265625 -7.757812 10.960938 -8.671875 10.359375 -9.296875 C 9.753906 -9.929688 8.894531 -10.25 7.78125 -10.25 C 6.539062 -10.25 5.554688 -9.878906 4.828125 -9.140625 C 4.097656 -8.398438 3.734375 -7.378906 3.734375 -6.078125 L 3.734375 0 L 2.171875 0 L 2.171875 -11.578125 L 3.671875 -11.578125 L 3.671875 -9.4375 C 4.097656 -10.144531 4.6875 -10.691406 5.4375 -11.078125 C 6.195312 -11.460938 7.078125 -11.65625 8.078125 -11.65625 Z M 8.078125 -11.65625" transform="translate(152.12 263.63)"/></g></g></g><g><g><g><path d="M 12.203125 -7.9375 C 13.222656 -7.71875 14.003906 -7.28125 14.546875 -6.625 C 15.097656 -5.976562 15.375 -5.140625 15.375 -4.109375 C 15.375 -2.796875 14.882812 -1.78125 13.90625 -1.0625 C 12.9375 -0.351562 11.5 0 9.59375 0 L 2.515625 0 L 2.515625 -15.40625 L 9.15625 -15.40625 C 10.863281 -15.40625 12.191406 -15.054688 13.140625 -14.359375 C 14.085938 -13.671875 14.5625 -12.695312 14.5625 -11.4375 C 14.5625 -10.582031 14.351562 -9.859375 13.9375 -9.265625 C 13.519531 -8.671875 12.941406 -8.226562 12.203125 -7.9375 Z M 4.140625 -14.0625 L 4.140625 -8.46875 L 9.046875 -8.46875 C 10.285156 -8.46875 11.242188 -8.707031 11.921875 -9.1875 C 12.597656 -9.664062 12.9375 -10.359375 12.9375 -11.265625 C 12.9375 -12.171875 12.597656 -12.863281 11.921875 -13.34375 C 11.242188 -13.820312 10.285156 -14.0625 9.046875 -14.0625 Z M 9.5625 -1.34375 C 10.945312 -1.34375 11.988281 -1.578125 12.6875 -2.046875 C 13.394531 -2.515625 13.75 -3.25 13.75 -4.25 C 13.75 -6.164062 12.351562 -7.125 9.5625 -7.125 L 4.140625 -7.125 L 4.140625 -1.34375 Z M 9.5625 -1.34375" transform="translate(172.773 263.63)"/></g></g></g><g><g><g><path d="M 12.25 -5.296875 L 2.578125 -5.296875 C 2.660156 -4.097656 3.117188 -3.128906 3.953125 -2.390625 C 4.796875 -1.648438 5.851562 -1.28125 7.125 -1.28125 C 7.84375 -1.28125 8.503906 -1.40625 9.109375 -1.65625 C 9.710938 -1.914062 10.234375 -2.296875 10.671875 -2.796875 L 11.546875 -1.78125 C 11.035156 -1.164062 10.394531 -0.695312 9.625 -0.375 C 8.851562 -0.0507812 8.003906 0.109375 7.078125 0.109375 C 5.890625 0.109375 4.835938 -0.140625 3.921875 -0.640625 C 3.003906 -1.148438 2.289062 -1.851562 1.78125 -2.75 C 1.269531 -3.644531 1.015625 -4.65625 1.015625 -5.78125 C 1.015625 -6.914062 1.257812 -7.925781 1.75 -8.8125 C 2.238281 -9.707031 2.910156 -10.40625 3.765625 -10.90625 C 4.628906 -11.40625 5.597656 -11.65625 6.671875 -11.65625 C 7.734375 -11.65625 8.691406 -11.40625 9.546875 -10.90625 C 10.398438 -10.40625 11.066406 -9.710938 11.546875 -8.828125 C 12.035156 -7.941406 12.28125 -6.925781 12.28125 -5.78125 Z M 6.671875 -10.3125 C 5.554688 -10.3125 4.617188 -9.957031 3.859375 -9.25 C 3.109375 -8.539062 2.679688 -7.613281 2.578125 -6.46875 L 10.78125 -6.46875 C 10.675781 -7.613281 10.242188 -8.539062 9.484375 -9.25 C 8.734375 -9.957031 7.796875 -10.3125 6.671875 -10.3125 Z M 6.671875 -10.3125" transform="translate(189.358 263.63)"/></g></g></g><g><g><g><path d="M 3.671875 -9.3125 C 4.035156 -10.082031 4.582031 -10.664062 5.3125 -11.0625 C 6.039062 -11.457031 6.941406 -11.65625 8.015625 -11.65625 L 8.015625 -10.140625 L 7.640625 -10.15625 C 6.421875 -10.15625 5.460938 -9.78125 4.765625 -9.03125 C 4.078125 -8.289062 3.734375 -7.242188 3.734375 -5.890625 L 3.734375 0 L 2.171875 0 L 2.171875 -11.578125 L 3.671875 -11.578125 Z M 3.671875 -9.3125" transform="translate(202.644 263.63)"/></g></g></g><g><g><g><path d="M 8.078125 -11.65625 C 9.523438 -11.65625 10.675781 -11.234375 11.53125 -10.390625 C 12.394531 -9.546875 12.828125 -8.316406 12.828125 -6.703125 L 12.828125 0 L 11.265625 0 L 11.265625 -6.5625 C 11.265625 -7.757812 10.960938 -8.671875 10.359375 -9.296875 C 9.753906 -9.929688 8.894531 -10.25 7.78125 -10.25 C 6.539062 -10.25 5.554688 -9.878906 4.828125 -9.140625 C 4.097656 -8.398438 3.734375 -7.378906 3.734375 -6.078125 L 3.734375 0 L 2.171875 0 L 2.171875 -11.578125 L 3.671875 -11.578125 L 3.671875 -9.4375 C 4.097656 -10.144531 4.6875 -10.691406 5.4375 -11.078125 C 6.195312 -11.460938 7.078125 -11.65625 8.078125 -11.65625 Z M 8.078125 -11.65625" transform="translate(211.465 263.63)"/></g></g></g><g><g><g><path d="M 6.21875 -11.65625 C 7.726562 -11.65625 8.882812 -11.273438 9.6875 -10.515625 C 10.5 -9.765625 10.90625 -8.648438 10.90625 -7.171875 L 10.90625 0 L 9.421875 0 L 9.421875 -1.796875 C 9.066406 -1.203125 8.546875 -0.734375 7.859375 -0.390625 C 7.179688 -0.0546875 6.375 0.109375 5.4375 0.109375 C 4.144531 0.109375 3.113281 -0.195312 2.34375 -0.8125 C 1.582031 -1.425781 1.203125 -2.238281 1.203125 -3.25 C 1.203125 -4.238281 1.554688 -5.03125 2.265625 -5.625 C 2.984375 -6.226562 4.117188 -6.53125 5.671875 -6.53125 L 9.34375 -6.53125 L 9.34375 -7.234375 C 9.34375 -8.234375 9.0625 -8.992188 8.5 -9.515625 C 7.945312 -10.035156 7.140625 -10.296875 6.078125 -10.296875 C 5.335938 -10.296875 4.628906 -10.171875 3.953125 -9.921875 C 3.285156 -9.679688 2.707031 -9.351562 2.21875 -8.9375 L 1.515625 -10.09375 C 2.097656 -10.59375 2.800781 -10.976562 3.625 -11.25 C 4.445312 -11.519531 5.3125 -11.65625 6.21875 -11.65625 Z M 5.671875 -1.125 C 6.554688 -1.125 7.3125 -1.320312 7.9375 -1.71875 C 8.570312 -2.125 9.039062 -2.707031 9.34375 -3.46875 L 9.34375 -5.375 L 5.71875 -5.375 C 3.738281 -5.375 2.75 -4.679688 2.75 -3.296875 C 2.75 -2.617188 3.003906 -2.085938 3.515625 -1.703125 C 4.035156 -1.316406 4.753906 -1.125 5.671875 -1.125 Z M 5.671875 -1.125" transform="translate(226.356 263.63)"/></g></g></g><g><g><g><path d="M 3.671875 -9.3125 C 4.035156 -10.082031 4.582031 -10.664062 5.3125 -11.0625 C 6.039062 -11.457031 6.941406 -11.65625 8.015625 -11.65625 L 8.015625 -10.140625 L 7.640625 -10.15625 C 6.421875 -10.15625 5.460938 -9.78125 4.765625 -9.03125 C 4.078125 -8.289062 3.734375 -7.242188 3.734375 -5.890625 L 3.734375 0 L 2.171875 0 L 2.171875 -11.578125 L 3.671875 -11.578125 Z M 3.671875 -9.3125" transform="translate(239.334 263.63)"/></g></g></g><g><g><g><path d="M 12.734375 -16.328125 L 12.734375 0 L 11.234375 0 L 11.234375 -2.28125 C 10.765625 -1.507812 10.144531 -0.914062 9.375 -0.5 C 8.613281 -0.09375 7.75 0.109375 6.78125 0.109375 C 5.6875 0.109375 4.703125 -0.140625 3.828125 -0.640625 C 2.953125 -1.140625 2.265625 -1.832031 1.765625 -2.71875 C 1.265625 -3.613281 1.015625 -4.632812 1.015625 -5.78125 C 1.015625 -6.925781 1.265625 -7.945312 1.765625 -8.84375 C 2.265625 -9.738281 2.953125 -10.429688 3.828125 -10.921875 C 4.703125 -11.410156 5.6875 -11.65625 6.78125 -11.65625 C 7.71875 -11.65625 8.5625 -11.460938 9.3125 -11.078125 C 10.070312 -10.691406 10.691406 -10.125 11.171875 -9.375 L 11.171875 -16.328125 Z M 6.90625 -1.28125 C 7.71875 -1.28125 8.445312 -1.460938 9.09375 -1.828125 C 9.75 -2.203125 10.265625 -2.734375 10.640625 -3.421875 C 11.015625 -4.117188 11.203125 -4.90625 11.203125 -5.78125 C 11.203125 -6.664062 11.015625 -7.453125 10.640625 -8.140625 C 10.265625 -8.828125 9.75 -9.359375 9.09375 -9.734375 C 8.445312 -10.109375 7.71875 -10.296875 6.90625 -10.296875 C 6.082031 -10.296875 5.34375 -10.109375 4.6875 -9.734375 C 4.039062 -9.359375 3.53125 -8.828125 3.15625 -8.140625 C 2.78125 -7.453125 2.59375 -6.664062 2.59375 -5.78125 C 2.59375 -4.90625 2.78125 -4.117188 3.15625 -3.421875 C 3.53125 -2.734375 4.039062 -2.203125 4.6875 -1.828125 C 5.34375 -1.460938 6.082031 -1.28125 6.90625 -1.28125 Z M 6.90625 -1.28125" transform="translate(248.154 263.63)"/></g></g></g><g><g><g><path d="M 6.90625 0.109375 C 5.789062 0.109375 4.785156 -0.140625 3.890625 -0.640625 C 2.992188 -1.148438 2.289062 -1.851562 1.78125 -2.75 C 1.269531 -3.644531 1.015625 -4.65625 1.015625 -5.78125 C 1.015625 -6.914062 1.269531 -7.925781 1.78125 -8.8125 C 2.289062 -9.707031 2.992188 -10.40625 3.890625 -10.90625 C 4.785156 -11.40625 5.789062 -11.65625 6.90625 -11.65625 C 8.019531 -11.65625 9.023438 -11.40625 9.921875 -10.90625 C 10.816406 -10.40625 11.515625 -9.707031 12.015625 -8.8125 C 12.523438 -7.925781 12.78125 -6.914062 12.78125 -5.78125 C 12.78125 -4.65625 12.523438 -3.644531 12.015625 -2.75 C 11.515625 -1.851562 10.816406 -1.148438 9.921875 -0.640625 C 9.023438 -0.140625 8.019531 0.109375 6.90625 0.109375 Z M 6.90625 -1.28125 C 7.726562 -1.28125 8.460938 -1.460938 9.109375 -1.828125 C 9.765625 -2.203125 10.273438 -2.734375 10.640625 -3.421875 C 11.015625 -4.117188 11.203125 -4.90625 11.203125 -5.78125 C 11.203125 -6.664062 11.015625 -7.453125 10.640625 -8.140625 C 10.273438 -8.828125 9.765625 -9.359375 9.109375 -9.734375 C 8.460938 -10.109375 7.726562 -10.296875 6.90625 -10.296875 C 6.082031 -10.296875 5.34375 -10.109375 4.6875 -9.734375 C 4.039062 -9.359375 3.53125 -8.828125 3.15625 -8.140625 C 2.78125 -7.453125 2.59375 -6.664062 2.59375 -5.78125 C 2.59375 -4.90625 2.78125 -4.117188 3.15625 -3.421875 C 3.53125 -2.734375 4.039062 -2.203125 4.6875 -1.828125 C 5.34375 -1.460938 6.082031 -1.28125 6.90625 -1.28125 Z M 6.90625 -1.28125" transform="translate(263.067 263.63)"/></g></g></g><g><g><g><path d="M 6.75 0.125 C 5.601562 0.125 4.503906 -0.0546875 3.453125 -0.421875 C 2.410156 -0.785156 1.601562 -1.269531 1.03125 -1.875 L 1.671875 -3.125 C 2.234375 -2.5625 2.972656 -2.109375 3.890625 -1.765625 C 4.816406 -1.421875 5.769531 -1.25 6.75 -1.25 C 8.132812 -1.25 9.171875 -1.5 9.859375 -2 C 10.546875 -2.507812 10.890625 -3.171875 10.890625 -3.984375 C 10.890625 -4.597656 10.703125 -5.085938 10.328125 -5.453125 C 9.953125 -5.816406 9.492188 -6.097656 8.953125 -6.296875 C 8.410156 -6.492188 7.65625 -6.710938 6.6875 -6.953125 C 5.53125 -7.242188 4.601562 -7.523438 3.90625 -7.796875 C 3.21875 -8.066406 2.628906 -8.476562 2.140625 -9.03125 C 1.648438 -9.59375 1.40625 -10.351562 1.40625 -11.3125 C 1.40625 -12.082031 1.609375 -12.785156 2.015625 -13.421875 C 2.429688 -14.066406 3.0625 -14.578125 3.90625 -14.953125 C 4.757812 -15.335938 5.816406 -15.53125 7.078125 -15.53125 C 7.960938 -15.53125 8.828125 -15.410156 9.671875 -15.171875 C 10.515625 -14.929688 11.242188 -14.597656 11.859375 -14.171875 L 11.3125 -12.875 C 10.664062 -13.300781 9.972656 -13.617188 9.234375 -13.828125 C 8.503906 -14.035156 7.785156 -14.140625 7.078125 -14.140625 C 5.734375 -14.140625 4.71875 -13.878906 4.03125 -13.359375 C 3.351562 -12.835938 3.015625 -12.171875 3.015625 -11.359375 C 3.015625 -10.734375 3.203125 -10.234375 3.578125 -9.859375 C 3.953125 -9.492188 4.421875 -9.210938 4.984375 -9.015625 C 5.546875 -8.816406 6.304688 -8.597656 7.265625 -8.359375 C 8.390625 -8.078125 9.300781 -7.800781 10 -7.53125 C 10.695312 -7.257812 11.285156 -6.847656 11.765625 -6.296875 C 12.253906 -5.753906 12.5 -5.007812 12.5 -4.0625 C 12.5 -3.289062 12.285156 -2.582031 11.859375 -1.9375 C 11.441406 -1.300781 10.800781 -0.796875 9.9375 -0.421875 C 9.070312 -0.0546875 8.007812 0.125 6.75 0.125 Z M 6.75 0.125" transform="translate(282.622 263.63)"/></g></g></g><g><g><g><path d="M 2.328125 0.109375 C 2.003906 0.109375 1.726562 -0.00390625 1.5 -0.234375 C 1.28125 -0.472656 1.171875 -0.757812 1.171875 -1.09375 C 1.171875 -1.4375 1.28125 -1.71875 1.5 -1.9375 C 1.726562 -2.164062 2.003906 -2.28125 2.328125 -2.28125 C 2.648438 -2.28125 2.925781 -2.164062 3.15625 -1.9375 C 3.394531 -1.71875 3.515625 -1.4375 3.515625 -1.09375 C 3.515625 -0.757812 3.394531 -0.472656 3.15625 -0.234375 C 2.925781 -0.00390625 2.648438 0.109375 2.328125 0.109375 Z M 2.328125 0.109375" transform="translate(296.15 263.63)"/></g></g></g><g><g><g><path d="M 12.171875 -4.109375 L 3.59375 -4.109375 L 1.734375 0 L 0.046875 0 L 7.078125 -15.40625 L 8.6875 -15.40625 L 15.734375 0 L 14.015625 0 Z M 11.578125 -5.4375 L 7.875 -13.703125 L 4.1875 -5.4375 Z M 11.578125 -5.4375" transform="translate(300.813 263.63)"/></g></g></g><g><g><g><path d="M 2.328125 0.109375 C 2.003906 0.109375 1.726562 -0.00390625 1.5 -0.234375 C 1.28125 -0.472656 1.171875 -0.757812 1.171875 -1.09375 C 1.171875 -1.4375 1.28125 -1.71875 1.5 -1.9375 C 1.726562 -2.164062 2.003906 -2.28125 2.328125 -2.28125 C 2.648438 -2.28125 2.925781 -2.164062 3.15625 -1.9375 C 3.394531 -1.71875 3.515625 -1.4375 3.515625 -1.09375 C 3.515625 -0.757812 3.394531 -0.472656 3.15625 -0.234375 C 2.925781 -0.00390625 2.648438 0.109375 2.328125 0.109375 Z M 2.328125 0.109375" transform="translate(316.584 263.63)"/></g></g></g></svg>